<svg width="24" height="24" viewBox="0 0 24 24" fill="none" xmlns="http://www.w3.org/2000/svg">
<path fill-rule="evenodd" clip-rule="evenodd" d="M22 12C22 17.5228 17.5228 22 12 22C6.47715 22 2 17.5228 2 12C2 6.47715 6.47715 2 12 2C17.5228 2 22 6.47715 22 12ZM24 12C24 18.6274 18.6274 24 12 24C5.37258 24 0 18.6274 0 12C0 5.37258 5.37258 0 12 0C18.6274 0 24 5.37258 24 12ZM15.2572 8.74289C15.2572 10.5425 13.7996 12 12 12C10.2005 12 8.74289 10.5425 8.74289 8.74289C8.74289 6.94331 10.2005 5.48574 12 5.48574C13.7996 5.48574 15.2572 6.94331 15.2572 8.74289ZM5.48574 16.8857C5.48574 14.7197 9.82588 13.6286 12 13.6286C14.1742 13.6286 18.5143 14.7197 18.5143 16.8857V17.7C18.5143 18.1479 18.1479 18.5143 17.7 18.5143H6.30003C5.85217 18.5143 5.48574 18.1479 5.48574 17.7V16.8857Z" fill="#4211AB"/>
</svg>
