<svg width="374" height="445" viewBox="0 0 374 445" fill="none" xmlns="http://www.w3.org/2000/svg">
    <defs>
        <linearGradient id="paint0_linear_723_1232" x1="-202.817" y1="539.452" x2="-53.8863" y2="507.564" gradientUnits="userSpaceOnUse">
            <stop stop-color="#26166D"/>
            <stop offset="0.385417" stop-color="#38219C"/>
            <stop offset="0.864583" stop-color="#38219C"/>
        </linearGradient>
        <linearGradient id="paint1_linear_723_1232" x1="-195.104" y1="537.126" x2="-46.1732" y2="505.238" gradientUnits="userSpaceOnUse">
            <stop stop-color="#26166D"/>
            <stop offset="0.385417" stop-color="#38219C"/>
            <stop offset="0.864583" stop-color="#38219C"/>
        </linearGradient>
        <linearGradient id="paint2_linear_723_1232" x1="-187.39" y1="534.8" x2="-38.46" y2="502.912" gradientUnits="userSpaceOnUse">
            <stop stop-color="#26166D"/>
            <stop offset="0.385417" stop-color="#38219C"/>
            <stop offset="0.864583" stop-color="#38219C"/>
        </linearGradient>
        <linearGradient id="paint3_linear_723_1232" x1="-179.677" y1="532.474" x2="-30.7467" y2="500.586" gradientUnits="userSpaceOnUse">
            <stop stop-color="#26166D"/>
            <stop offset="0.385417" stop-color="#38219C"/>
            <stop offset="0.864583" stop-color="#38219C"/>
        </linearGradient>
        <linearGradient id="paint4_linear_723_1232" x1="-171.964" y1="530.148" x2="-23.0335" y2="498.26" gradientUnits="userSpaceOnUse">
            <stop stop-color="#26166D"/>
            <stop offset="0.385417" stop-color="#38219C"/>
            <stop offset="0.864583" stop-color="#38219C"/>
        </linearGradient>
        <linearGradient id="paint5_linear_723_1232" x1="-164.251" y1="527.822" x2="-15.3203" y2="495.934" gradientUnits="userSpaceOnUse">
            <stop stop-color="#26166D"/>
            <stop offset="0.385417" stop-color="#38219C"/>
            <stop offset="0.864583" stop-color="#38219C"/>
        </linearGradient>
        <linearGradient id="paint6_linear_723_1232" x1="-156.538" y1="525.496" x2="-7.60711" y2="493.608" gradientUnits="userSpaceOnUse">
            <stop stop-color="#26166D"/>
            <stop offset="0.385417" stop-color="#38219C"/>
            <stop offset="0.864583" stop-color="#38219C"/>
        </linearGradient>
        <linearGradient id="paint7_linear_723_1232" x1="-148.824" y1="523.17" x2="0.105993" y2="491.282" gradientUnits="userSpaceOnUse">
            <stop stop-color="#26166D"/>
            <stop offset="0.385417" stop-color="#38219C"/>
            <stop offset="0.864583" stop-color="#38219C"/>
        </linearGradient>
        <linearGradient id="paint8_linear_723_1232" x1="-141.111" y1="520.844" x2="7.81928" y2="488.956" gradientUnits="userSpaceOnUse">
            <stop stop-color="#26166D"/>
            <stop offset="0.385417" stop-color="#38219C"/>
            <stop offset="0.864583" stop-color="#38219C"/>
        </linearGradient>
        <linearGradient id="paint9_linear_723_1232" x1="-133.398" y1="518.518" x2="15.5326" y2="486.63" gradientUnits="userSpaceOnUse">
            <stop stop-color="#26166D"/>
            <stop offset="0.385417" stop-color="#38219C"/>
            <stop offset="0.864583" stop-color="#38219C"/>
        </linearGradient>
        <linearGradient id="paint10_linear_723_1232" x1="-125.685" y1="516.192" x2="23.2457" y2="484.304" gradientUnits="userSpaceOnUse">
            <stop stop-color="#26166D"/>
            <stop offset="0.385417" stop-color="#38219C"/>
            <stop offset="0.864583" stop-color="#38219C"/>
        </linearGradient>
        <linearGradient id="paint11_linear_723_1232" x1="-117.971" y1="513.866" x2="30.959" y2="481.978" gradientUnits="userSpaceOnUse">
            <stop stop-color="#26166D"/>
            <stop offset="0.385417" stop-color="#38219C"/>
            <stop offset="0.864583" stop-color="#38219C"/>
        </linearGradient>
        <linearGradient id="paint12_linear_723_1232" x1="-110.258" y1="511.54" x2="38.6721" y2="479.652" gradientUnits="userSpaceOnUse">
            <stop stop-color="#26166D"/>
            <stop offset="0.385417" stop-color="#38219C"/>
            <stop offset="0.864583" stop-color="#38219C"/>
        </linearGradient>
        <linearGradient id="paint13_linear_723_1232" x1="-102.545" y1="509.214" x2="46.3853" y2="477.326" gradientUnits="userSpaceOnUse">
            <stop stop-color="#26166D"/>
            <stop offset="0.385417" stop-color="#38219C"/>
            <stop offset="0.864583" stop-color="#38219C"/>
        </linearGradient>
        <linearGradient id="paint14_linear_723_1232" x1="-94.832" y1="506.888" x2="54.0985" y2="475" gradientUnits="userSpaceOnUse">
            <stop stop-color="#26166D"/>
            <stop offset="0.385417" stop-color="#38219C"/>
            <stop offset="0.864583" stop-color="#38219C"/>
        </linearGradient>
        <linearGradient id="paint15_linear_723_1232" x1="-87.1188" y1="504.562" x2="61.8117" y2="472.674" gradientUnits="userSpaceOnUse">
            <stop stop-color="#26166D"/>
            <stop offset="0.385417" stop-color="#38219C"/>
            <stop offset="0.864583" stop-color="#38219C"/>
        </linearGradient>
        <linearGradient id="paint16_linear_723_1232" x1="-79.4055" y1="502.236" x2="69.5249" y2="470.349" gradientUnits="userSpaceOnUse">
            <stop stop-color="#26166D"/>
            <stop offset="0.385417" stop-color="#38219C"/>
            <stop offset="0.864583" stop-color="#38219C"/>
        </linearGradient>
        <linearGradient id="paint17_linear_723_1232" x1="-71.6924" y1="499.91" x2="77.238" y2="468.023" gradientUnits="userSpaceOnUse">
            <stop stop-color="#26166D"/>
            <stop offset="0.385417" stop-color="#38219C"/>
            <stop offset="0.864583" stop-color="#38219C"/>
        </linearGradient>
        <linearGradient id="paint18_linear_723_1232" x1="-63.9791" y1="497.584" x2="84.9513" y2="465.697" gradientUnits="userSpaceOnUse">
            <stop stop-color="#26166D"/>
            <stop offset="0.385417" stop-color="#38219C"/>
            <stop offset="0.864583" stop-color="#38219C"/>
        </linearGradient>
        <linearGradient id="paint19_linear_723_1232" x1="-56.2661" y1="495.259" x2="92.6644" y2="463.371" gradientUnits="userSpaceOnUse">
            <stop stop-color="#26166D"/>
            <stop offset="0.385417" stop-color="#38219C"/>
            <stop offset="0.864583" stop-color="#38219C"/>
        </linearGradient>
        <linearGradient id="paint20_linear_723_1232" x1="-48.5529" y1="492.933" x2="100.378" y2="461.045" gradientUnits="userSpaceOnUse">
            <stop stop-color="#26166D"/>
            <stop offset="0.385417" stop-color="#38219C"/>
            <stop offset="0.864583" stop-color="#38219C"/>
        </linearGradient>
        <linearGradient id="paint21_linear_723_1232" x1="-40.8397" y1="490.607" x2="108.091" y2="458.719" gradientUnits="userSpaceOnUse">
            <stop stop-color="#26166D"/>
            <stop offset="0.385417" stop-color="#38219C"/>
            <stop offset="0.864583" stop-color="#38219C"/>
        </linearGradient>
        <linearGradient id="paint22_linear_723_1232" x1="-33.1265" y1="488.281" x2="115.804" y2="456.393" gradientUnits="userSpaceOnUse">
            <stop stop-color="#26166D"/>
            <stop offset="0.385417" stop-color="#38219C"/>
            <stop offset="0.864583" stop-color="#38219C"/>
        </linearGradient>
        <linearGradient id="paint23_linear_723_1232" x1="-25.4134" y1="485.955" x2="123.517" y2="454.067" gradientUnits="userSpaceOnUse">
            <stop stop-color="#26166D"/>
            <stop offset="0.385417" stop-color="#38219C"/>
            <stop offset="0.864583" stop-color="#38219C"/>
        </linearGradient>
        <linearGradient id="paint24_linear_723_1232" x1="-17.7002" y1="483.629" x2="131.23" y2="451.741" gradientUnits="userSpaceOnUse">
            <stop stop-color="#26166D"/>
            <stop offset="0.385417" stop-color="#38219C"/>
            <stop offset="0.864583" stop-color="#38219C"/>
        </linearGradient>
        <linearGradient id="paint25_linear_723_1232" x1="-9.98693" y1="481.303" x2="138.944" y2="449.415" gradientUnits="userSpaceOnUse">
            <stop stop-color="#26166D"/>
            <stop offset="0.385417" stop-color="#38219C"/>
            <stop offset="0.864583" stop-color="#38219C"/>
        </linearGradient>
        <linearGradient id="paint26_linear_723_1232" x1="-2.27372" y1="478.977" x2="146.657" y2="447.089" gradientUnits="userSpaceOnUse">
            <stop stop-color="#26166D"/>
            <stop offset="0.385417" stop-color="#38219C"/>
            <stop offset="0.864583" stop-color="#38219C"/>
        </linearGradient>
        <linearGradient id="paint27_linear_723_1232" x1="5.4394" y1="476.651" x2="154.37" y2="444.763" gradientUnits="userSpaceOnUse">
            <stop stop-color="#26166D"/>
            <stop offset="0.385417" stop-color="#38219C"/>
            <stop offset="0.864583" stop-color="#38219C"/>
        </linearGradient>
        <linearGradient id="paint28_linear_723_1232" x1="13.1526" y1="474.325" x2="162.083" y2="442.437" gradientUnits="userSpaceOnUse">
            <stop stop-color="#26166D"/>
            <stop offset="0.385417" stop-color="#38219C"/>
            <stop offset="0.864583" stop-color="#38219C"/>
        </linearGradient>
        <linearGradient id="paint29_linear_723_1232" x1="20.8658" y1="471.999" x2="169.796" y2="440.111" gradientUnits="userSpaceOnUse">
            <stop stop-color="#26166D"/>
            <stop offset="0.385417" stop-color="#38219C"/>
            <stop offset="0.864583" stop-color="#38219C"/>
        </linearGradient>
        <linearGradient id="paint30_linear_723_1232" x1="28.579" y1="469.673" x2="177.509" y2="437.785" gradientUnits="userSpaceOnUse">
            <stop stop-color="#26166D"/>
            <stop offset="0.385417" stop-color="#38219C"/>
            <stop offset="0.864583" stop-color="#38219C"/>
        </linearGradient>
        <linearGradient id="paint31_linear_723_1232" x1="36.2923" y1="467.347" x2="185.223" y2="435.459" gradientUnits="userSpaceOnUse">
            <stop stop-color="#26166D"/>
            <stop offset="0.385417" stop-color="#38219C"/>
            <stop offset="0.864583" stop-color="#38219C"/>
        </linearGradient>
        <linearGradient id="paint32_linear_723_1232" x1="44.0054" y1="465.021" x2="192.936" y2="433.133" gradientUnits="userSpaceOnUse">
            <stop stop-color="#26166D"/>
            <stop offset="0.385417" stop-color="#38219C"/>
            <stop offset="0.864583" stop-color="#38219C"/>
        </linearGradient>
        <linearGradient id="paint33_linear_723_1232" x1="51.796" y1="463.064" x2="200.726" y2="431.176" gradientUnits="userSpaceOnUse">
            <stop stop-color="#26166D"/>
            <stop offset="0.385417" stop-color="#38219C"/>
            <stop offset="0.864583" stop-color="#38219C"/>
        </linearGradient>
        <linearGradient id="paint34_linear_723_1232" x1="59.3391" y1="459.929" x2="208.27" y2="428.041" gradientUnits="userSpaceOnUse">
            <stop stop-color="#26166D"/>
            <stop offset="0.385417" stop-color="#38219C"/>
            <stop offset="0.864583" stop-color="#38219C"/>
        </linearGradient>
    </defs>
<g opacity="0.6">
<path opacity="0.0294118" fill-rule="evenodd" clip-rule="evenodd" d="M-3.91089 511.456C-20.2279 526.056 -45.2759 519.303 -61.9987 533.348C-81.0739 549.369 -82.3548 599.313 -103.851 595.392C-132.981 590.08 -127.479 540.866 -145.502 518.119C-152.014 509.9 -163.268 504.249 -174.387 506.366C-204.752 512.147 -234.791 547.72 -262.841 540.459C-281.608 535.601 -273.465 501.729 -273.518 480.705C-273.567 461.258 -269.688 441.424 -263.139 422.069C-257.069 404.129 -250.438 384.754 -236.56 371.483C-222.552 358.088 -194.437 365.915 -186.147 348.447C-170.372 315.21 -204.52 267.486 -176.171 244.245C-152.496 224.835 -132.211 271.366 -111.503 287.252C-98.8886 296.929 -90.8759 311.737 -77.3196 320.08C-66.5709 326.694 -54.0292 330.989 -40.6881 330.832C-8.36793 330.454 30.2035 302.867 56.4881 318.512C75.2537 329.682 64.1996 365.556 58.6806 389.979C53.4259 413.232 36.8857 433.132 25.6649 454.909C15.8423 473.973 12.0341 497.189 -3.91089 511.456Z" stroke="url(#paint0_linear_723_1232)" stroke-opacity="0.8" stroke-width="0.877043"/>
<path opacity="0.0588235" fill-rule="evenodd" clip-rule="evenodd" d="M3.80231 509.13C-12.5147 523.73 -37.5627 516.977 -54.2855 531.022C-73.3608 547.043 -74.6416 596.987 -96.1378 593.066C-125.268 587.754 -119.766 538.54 -137.789 515.793C-144.301 507.574 -155.555 501.923 -166.674 504.04C-197.039 509.821 -227.078 545.394 -255.128 538.133C-273.895 533.275 -265.752 499.403 -265.805 478.379C-265.854 458.932 -261.975 439.098 -255.426 419.743C-249.355 401.803 -242.725 382.428 -228.847 369.157C-214.838 355.762 -186.724 363.589 -178.434 346.121C-162.659 312.884 -196.806 265.16 -168.458 241.919C-144.783 222.509 -124.498 269.04 -103.79 284.926C-91.1754 294.603 -83.1627 309.411 -69.6064 317.754C-58.8577 324.368 -46.316 328.663 -32.9749 328.506C-0.654731 328.128 37.9167 300.541 64.2013 316.186C82.9669 327.356 71.9128 363.23 66.3938 387.653C61.1391 410.906 44.5989 430.806 33.3781 452.583C23.5554 471.647 19.7473 494.863 3.80231 509.13Z" stroke="url(#paint1_linear_723_1232)" stroke-opacity="0.8" stroke-width="0.877043"/>
<path opacity="0.0882353" fill-rule="evenodd" clip-rule="evenodd" d="M11.5155 506.805C-4.80155 521.405 -29.8495 514.652 -46.5723 528.696C-65.6476 544.717 -66.9284 594.661 -88.4246 590.74C-117.554 585.428 -112.053 536.214 -130.076 513.467C-136.588 505.248 -147.842 499.597 -158.961 501.714C-189.326 507.496 -219.365 543.068 -247.414 535.807C-266.182 530.949 -258.039 497.077 -258.092 476.053C-258.141 456.606 -254.262 436.772 -247.713 417.417C-241.642 399.477 -235.012 380.103 -221.133 366.831C-207.125 353.437 -179.011 361.263 -170.72 343.796C-154.945 310.558 -189.093 262.834 -160.745 239.593C-137.07 220.183 -116.784 266.714 -96.0769 282.6C-83.4622 292.278 -75.4495 307.085 -61.8932 315.428C-51.1445 322.043 -38.6028 326.337 -25.2617 326.18C7.05847 325.802 45.6299 298.215 71.9145 313.86C90.6801 325.03 79.626 360.904 74.107 385.327C68.8523 408.58 52.3121 428.48 41.0913 450.258C31.2686 469.321 27.4605 492.537 11.5155 506.805Z" stroke="url(#paint2_linear_723_1232)" stroke-opacity="0.8" stroke-width="0.877043"/>
<path opacity="0.117647" fill-rule="evenodd" clip-rule="evenodd" d="M19.2288 504.478C2.91171 519.079 -22.1362 512.325 -38.859 526.37C-57.9343 542.391 -59.2151 592.335 -80.7113 588.414C-109.841 583.102 -104.34 533.888 -122.362 511.141C-128.874 502.922 -140.129 497.271 -151.248 499.388C-181.613 505.169 -211.652 540.742 -239.701 533.481C-258.468 528.623 -250.325 494.751 -250.378 473.727C-250.427 454.28 -246.549 434.446 -239.999 415.091C-233.929 397.151 -227.299 377.777 -213.42 364.505C-199.412 351.111 -171.297 358.937 -163.007 341.47C-147.232 308.232 -181.38 260.508 -153.032 237.267C-129.356 217.857 -109.071 264.388 -88.3636 280.274C-75.7489 289.952 -67.7362 304.759 -54.1799 313.102C-43.4313 319.716 -30.8896 324.011 -17.5485 323.854C14.7717 323.476 53.3431 295.889 79.6277 311.534C98.3933 322.704 87.3393 358.578 81.8203 383.001C76.5656 406.254 60.0254 426.154 48.8046 447.931C38.9819 466.995 35.1737 490.211 19.2288 504.478Z" stroke="url(#paint3_linear_723_1232)" stroke-opacity="0.8" stroke-width="0.877043"/>
<path opacity="0.147059" fill-rule="evenodd" clip-rule="evenodd" d="M26.942 502.153C10.6249 516.753 -14.423 510 -31.1458 524.044C-50.2211 540.065 -51.5019 590.009 -72.9982 586.088C-102.128 580.776 -96.6263 531.562 -114.649 508.815C-121.161 500.596 -132.415 494.945 -143.535 497.062C-173.899 502.844 -203.938 538.416 -231.988 531.155C-250.755 526.297 -242.612 492.425 -242.665 471.401C-242.714 451.954 -238.835 432.12 -232.286 412.765C-226.216 394.825 -219.586 375.451 -205.707 362.179C-191.699 348.785 -163.584 356.611 -155.294 339.144C-139.519 305.906 -173.667 258.182 -145.319 234.941C-121.643 215.531 -101.358 262.062 -80.6504 277.948C-68.0357 287.626 -60.023 302.433 -46.4667 310.776C-35.7181 317.391 -23.1764 321.685 -9.83529 321.528C22.4849 321.15 61.0563 293.563 87.3409 309.208C106.107 320.378 95.0525 356.252 89.5335 380.675C84.2788 403.928 67.7386 423.828 56.5178 445.606C46.6951 464.669 42.8869 487.885 26.942 502.153Z" stroke="url(#paint4_linear_723_1232)" stroke-opacity="0.8" stroke-width="0.877043"/>
<path opacity="0.176471" fill-rule="evenodd" clip-rule="evenodd" d="M34.6551 499.826C18.3381 514.427 -6.70983 507.674 -23.4326 521.718C-42.5079 537.739 -43.7887 587.683 -65.285 583.762C-94.4147 578.45 -88.9131 529.236 -106.936 506.489C-113.448 498.27 -124.702 492.619 -135.821 494.736C-166.186 500.518 -196.225 536.09 -224.275 528.829C-243.042 523.971 -234.899 490.099 -234.952 469.075C-235.001 449.628 -231.122 429.794 -224.573 410.439C-218.503 392.499 -211.872 373.125 -197.994 359.853C-183.986 346.459 -155.871 354.285 -147.581 336.818C-131.806 303.58 -165.954 255.856 -137.605 232.615C-113.93 213.205 -93.6447 259.736 -72.9372 275.622C-60.3225 285.3 -52.3098 300.107 -38.7535 308.45C-28.0049 315.064 -15.4632 319.359 -2.1221 319.202C30.1981 318.824 68.7695 291.237 95.0541 306.882C113.82 318.052 102.766 353.926 97.2467 378.349C91.992 401.602 75.4518 421.502 64.231 443.28C54.4083 462.343 50.6001 485.559 34.6551 499.826Z" stroke="url(#paint5_linear_723_1232)" stroke-opacity="0.8" stroke-width="0.877043"/>
<path opacity="0.205882" fill-rule="evenodd" clip-rule="evenodd" d="M42.3683 497.501C26.0513 512.101 1.00337 505.348 -15.7195 519.393C-34.7947 535.413 -36.0755 585.357 -57.5718 581.437C-86.7015 576.124 -81.1999 526.911 -99.2228 504.163C-105.735 495.944 -116.989 490.294 -128.108 492.411C-158.473 498.192 -188.512 533.764 -216.562 526.503C-235.329 521.645 -227.186 487.773 -227.239 466.75C-227.288 447.303 -223.409 427.468 -216.86 408.113C-210.789 390.173 -204.159 370.799 -190.281 357.528C-176.272 344.133 -148.158 351.959 -139.868 334.492C-124.093 301.254 -158.24 253.53 -129.892 230.289C-106.217 210.88 -85.9315 257.411 -65.224 273.296C-52.6093 282.974 -44.5966 297.781 -31.0403 306.124C-20.2917 312.739 -7.75 317.033 5.5911 316.877C37.9113 316.498 76.4827 288.911 102.767 304.556C121.533 315.726 110.479 351.601 104.96 376.023C99.7051 399.276 83.1649 419.176 71.9442 440.954C62.1215 460.018 58.3133 483.234 42.3683 497.501Z" stroke="url(#paint6_linear_723_1232)" stroke-opacity="0.8" stroke-width="0.877043"/>
<path opacity="0.235294" fill-rule="evenodd" clip-rule="evenodd" d="M50.0814 495.175C33.7644 509.775 8.71647 503.022 -8.00635 517.067C-27.0816 533.087 -28.3624 583.031 -49.8587 579.111C-78.9884 573.798 -73.4868 524.585 -91.5097 501.837C-98.0218 493.618 -109.276 487.968 -120.395 490.085C-150.76 495.866 -180.799 531.438 -208.849 524.177C-227.616 519.319 -219.473 485.447 -219.526 464.424C-219.575 444.977 -215.696 425.142 -209.147 405.787C-203.076 387.848 -196.446 368.473 -182.567 355.202C-168.559 341.807 -140.445 349.633 -132.154 332.166C-116.379 298.928 -150.527 251.204 -122.179 227.964C-98.5037 208.554 -78.2184 255.085 -57.5109 270.97C-44.8962 280.648 -36.8835 295.455 -23.3272 303.798C-12.5786 310.413 -0.0368998 314.707 13.3042 314.551C45.6244 314.172 84.1958 286.585 110.48 302.23C129.246 313.4 118.192 349.275 112.673 373.697C107.418 396.95 90.8781 416.85 79.6573 438.628C69.8346 457.692 66.0264 480.908 50.0814 495.175Z" stroke="url(#paint7_linear_723_1232)" stroke-opacity="0.8" stroke-width="0.877043"/>
<path opacity="0.264706" fill-rule="evenodd" clip-rule="evenodd" d="M57.7947 492.849C41.4777 507.449 16.4298 500.696 -0.293059 514.741C-19.3683 530.761 -20.6491 580.705 -42.1454 576.785C-71.2752 571.472 -65.7735 522.259 -83.7964 499.511C-90.3085 491.292 -101.563 485.642 -112.682 487.759C-143.047 493.54 -173.086 529.112 -201.135 521.852C-219.903 516.993 -211.759 483.122 -211.812 462.098C-211.861 442.651 -207.983 422.816 -201.433 403.462C-195.363 385.522 -188.733 366.147 -174.854 352.876C-160.846 339.481 -132.731 347.307 -124.441 329.84C-108.666 296.602 -142.814 248.878 -114.466 225.638C-90.7904 206.228 -70.5051 252.759 -49.7976 268.645C-37.1829 278.322 -29.1702 293.129 -15.6139 301.472C-4.86528 308.087 7.67639 312.381 21.0175 312.225C53.3377 311.846 91.9091 284.259 118.194 299.904C136.959 311.074 125.905 346.949 120.386 371.371C115.132 394.624 98.5913 414.525 87.3705 436.302C77.5479 455.366 73.7397 478.582 57.7947 492.849Z" stroke="url(#paint8_linear_723_1232)" stroke-opacity="0.8" stroke-width="0.877043"/>
<path opacity="0.294118" fill-rule="evenodd" clip-rule="evenodd" d="M65.508 490.523C49.191 505.123 24.143 498.37 7.42023 512.415C-11.655 528.435 -12.9358 578.379 -34.4321 574.459C-63.5619 569.146 -58.0602 519.933 -76.0831 497.185C-82.5952 488.966 -93.8493 483.316 -104.968 485.433C-135.333 491.214 -165.372 526.786 -193.422 519.526C-212.189 514.667 -204.046 480.796 -204.099 459.772C-204.148 440.325 -200.269 420.49 -193.72 401.136C-187.65 383.196 -181.02 363.821 -167.141 350.55C-153.133 337.155 -125.018 344.981 -116.728 327.514C-100.953 294.276 -135.101 246.552 -106.753 223.312C-83.0771 203.902 -62.7918 250.433 -42.0844 266.319C-29.4696 275.996 -21.457 290.803 -7.90065 299.146C2.848 305.761 15.3897 310.055 28.7308 309.899C61.051 309.52 99.6224 281.933 125.907 297.578C144.673 308.748 133.619 344.623 128.1 369.045C122.845 392.298 106.305 412.199 95.0838 433.976C85.2612 453.04 81.453 476.256 65.508 490.523Z" stroke="url(#paint9_linear_723_1232)" stroke-opacity="0.8" stroke-width="0.877043"/>
<path opacity="0.323529" fill-rule="evenodd" clip-rule="evenodd" d="M73.2211 488.197C56.9041 502.797 31.8562 496.044 15.1333 510.089C-3.94193 526.109 -5.22274 576.053 -26.719 572.133C-55.8488 566.82 -50.3471 517.607 -68.37 494.859C-74.8821 486.64 -86.1362 480.99 -97.2554 483.107C-127.62 488.888 -157.659 524.46 -185.709 517.2C-204.476 512.341 -196.333 478.47 -196.386 457.446C-196.435 437.999 -192.556 418.164 -186.007 398.81C-179.937 380.87 -173.306 361.495 -159.428 348.224C-145.42 334.829 -117.305 342.655 -109.015 325.188C-93.2398 291.95 -127.388 244.226 -99.0394 220.986C-75.364 201.576 -55.0787 248.107 -34.3712 263.993C-21.7565 273.67 -13.7439 288.477 -0.187548 296.82C10.5611 303.435 23.1028 307.729 36.4439 307.573C68.7641 307.194 107.335 279.607 133.62 295.252C152.386 306.422 141.332 342.297 135.813 366.719C130.558 389.972 114.018 409.873 102.797 431.65C92.9743 450.714 89.1661 473.93 73.2211 488.197Z" stroke="url(#paint10_linear_723_1232)" stroke-opacity="0.8" stroke-width="0.877043"/>
<path opacity="0.352941" fill-rule="evenodd" clip-rule="evenodd" d="M80.9344 485.871C64.6174 500.471 39.5694 493.718 22.8466 507.763C3.77136 523.783 2.49055 573.727 -19.0057 569.807C-48.1355 564.494 -42.6339 515.281 -60.6567 492.533C-67.1688 484.314 -78.4229 478.664 -89.5421 480.781C-119.907 486.562 -149.946 522.134 -177.996 514.874C-196.763 510.015 -188.62 476.144 -188.673 455.12C-188.722 435.673 -184.843 415.838 -178.294 396.484C-172.223 378.544 -165.593 359.169 -151.714 345.898C-137.706 332.503 -109.592 340.329 -101.301 322.862C-85.5265 289.624 -119.674 241.9 -91.3261 218.66C-67.6507 199.25 -47.3654 245.781 -26.658 261.667C-14.0432 271.344 -6.03056 286.151 7.52574 294.494C18.2744 301.109 30.8161 305.403 44.1572 305.247C76.4774 304.868 115.049 277.281 141.333 292.926C160.099 304.096 149.045 339.971 143.526 364.393C138.271 387.646 121.731 407.547 110.51 429.324C100.688 448.388 96.8794 471.604 80.9344 485.871Z" stroke="url(#paint11_linear_723_1232)" stroke-opacity="0.8" stroke-width="0.877043"/>
<path opacity="0.382353" fill-rule="evenodd" clip-rule="evenodd" d="M88.6475 483.545C72.3305 498.145 47.2825 491.392 30.5597 505.437C11.4845 521.457 10.2037 571.401 -11.2926 567.481C-40.4224 562.168 -34.9208 512.955 -52.9436 490.208C-59.4557 481.989 -70.7098 476.338 -81.829 478.455C-112.194 484.236 -142.233 519.809 -170.282 512.548C-189.05 507.69 -180.907 473.818 -180.96 452.794C-181.009 433.347 -177.13 413.513 -170.581 394.158C-164.51 376.218 -157.88 356.843 -144.001 343.572C-129.993 330.177 -101.879 338.004 -93.5883 320.536C-77.8134 287.298 -111.961 239.575 -83.613 216.334C-59.9376 196.924 -39.6523 243.455 -18.9449 259.341C-6.33014 269.018 1.68254 283.826 15.2388 292.168C25.9875 298.783 38.5292 303.077 51.8703 302.921C84.1905 302.542 122.762 274.955 149.046 290.601C167.812 301.77 156.758 337.645 151.239 362.067C145.984 385.32 129.444 405.221 118.223 426.998C108.401 446.062 104.592 469.278 88.6475 483.545Z" stroke="url(#paint12_linear_723_1232)" stroke-opacity="0.8" stroke-width="0.877043"/>
<path opacity="0.411765" fill-rule="evenodd" clip-rule="evenodd" d="M96.3607 481.219C80.0437 495.819 54.9957 489.066 38.2729 503.111C19.1977 519.131 17.9169 569.075 -3.57939 565.155C-32.7092 559.842 -27.2076 510.629 -45.2304 487.882C-51.7425 479.662 -62.9966 474.012 -74.1158 476.129C-104.481 481.91 -134.52 517.483 -162.569 510.222C-181.337 505.364 -173.194 471.492 -173.246 450.468C-173.295 431.021 -169.417 411.186 -162.867 391.832C-156.797 373.892 -150.167 354.517 -136.288 341.246C-122.28 327.851 -94.1654 335.678 -85.8751 318.21C-70.1002 284.972 -104.248 237.249 -75.8998 214.008C-52.2244 194.598 -31.9391 241.129 -11.2317 257.015C1.38305 266.692 9.39574 281.5 22.952 289.842C33.7007 296.457 46.2424 300.751 59.5835 300.595C91.9037 300.216 130.475 272.629 156.76 288.275C175.525 299.444 164.471 335.319 158.952 359.741C153.698 382.994 137.157 402.895 125.937 424.672C116.114 443.736 112.306 466.952 96.3607 481.219Z" stroke="url(#paint13_linear_723_1232)" stroke-opacity="0.8" stroke-width="0.877043"/>
<path opacity="0.441176" fill-rule="evenodd" clip-rule="evenodd" d="M104.074 478.893C87.7569 493.493 62.7089 486.74 45.9861 500.785C26.9109 516.806 25.63 566.749 4.13381 562.829C-24.996 557.516 -19.4944 508.303 -37.5172 485.556C-44.0293 477.337 -55.2834 471.686 -66.4026 473.803C-96.7674 479.584 -126.807 515.157 -154.856 507.896C-173.623 503.038 -165.48 469.166 -165.533 448.142C-165.582 428.695 -161.703 408.861 -155.154 389.506C-149.084 371.566 -142.454 352.191 -128.575 338.92C-114.567 325.525 -86.4522 333.352 -78.1619 315.884C-62.387 282.646 -96.5348 234.923 -68.1866 211.682C-44.5112 192.272 -24.2259 238.803 -3.51847 254.689C9.09625 264.366 17.1089 279.174 30.6652 287.516C41.4139 294.131 53.9556 298.425 67.2967 298.269C99.6169 297.89 138.188 270.304 164.473 285.949C183.238 297.118 172.184 332.993 166.665 357.415C161.411 380.668 144.871 400.569 133.65 422.346C123.827 441.41 120.019 464.626 104.074 478.893Z" stroke="url(#paint14_linear_723_1232)" stroke-opacity="0.8" stroke-width="0.877043"/>
<path opacity="0.470588" fill-rule="evenodd" clip-rule="evenodd" d="M111.787 476.567C95.4701 491.167 70.4221 484.414 53.6993 498.459C34.6241 514.48 33.3432 564.423 11.847 560.503C-17.2828 555.19 -11.7812 505.977 -29.804 483.23C-36.3161 475.011 -47.5702 469.36 -58.6894 471.477C-89.0542 477.258 -119.093 512.831 -147.143 505.57C-165.91 500.712 -157.767 466.84 -157.82 445.816C-157.869 426.369 -153.99 406.535 -147.441 387.18C-141.371 369.24 -134.74 349.865 -120.862 336.594C-106.854 323.199 -78.739 331.026 -70.4487 313.558C-54.6738 280.32 -88.8216 232.597 -60.4734 209.356C-36.798 189.946 -16.5127 236.477 4.19473 252.363C16.8094 262.04 24.8221 276.848 38.3784 285.19C49.1271 291.805 61.6688 296.099 75.0099 295.943C107.33 295.564 145.901 267.977 172.186 283.623C190.952 294.792 179.898 330.667 174.379 355.089C169.124 378.342 152.584 398.243 141.363 420.02C131.54 439.084 127.732 462.3 111.787 476.567Z" stroke="url(#paint15_linear_723_1232)" stroke-opacity="0.8" stroke-width="0.877043"/>
<path opacity="0.5" fill-rule="evenodd" clip-rule="evenodd" d="M119.5 474.241C103.183 488.841 78.1354 482.088 61.4126 496.133C42.3373 512.154 41.0565 562.098 19.5603 558.177C-9.56953 552.864 -4.06791 503.651 -22.0908 480.904C-28.6029 472.685 -39.857 467.034 -50.9761 469.151C-81.3409 474.932 -111.38 510.505 -139.43 503.244C-158.197 498.386 -150.054 464.514 -150.107 443.49C-150.156 424.043 -146.277 404.209 -139.728 384.854C-133.657 366.914 -127.027 347.539 -113.149 334.268C-99.1404 320.873 -71.0257 328.7 -62.7355 311.232C-46.9606 277.994 -81.1083 230.271 -52.7602 207.03C-29.0848 187.62 -8.79947 234.151 11.908 250.037C24.5227 259.714 32.5354 274.522 46.0917 282.864C56.8403 289.479 69.382 293.773 82.7231 293.617C115.043 293.238 153.615 265.652 179.899 281.297C198.665 292.466 187.611 328.341 182.092 352.763C176.837 376.016 160.297 395.917 149.076 417.694C139.254 436.758 135.445 459.974 119.5 474.241Z" stroke="url(#paint16_linear_723_1232)" stroke-opacity="0.8" stroke-width="0.877043"/>
<path opacity="0.529412" fill-rule="evenodd" clip-rule="evenodd" d="M127.213 471.915C110.896 486.515 85.8485 479.762 69.1257 493.807C50.0504 509.828 48.7696 559.772 27.2734 555.851C-1.85639 550.538 3.64523 501.325 -14.3776 478.578C-20.8897 470.359 -32.1438 464.708 -43.263 466.825C-73.6278 472.606 -103.667 508.179 -131.716 500.918C-150.484 496.06 -142.341 462.188 -142.394 441.164C-142.443 421.717 -138.564 401.883 -132.015 382.528C-125.944 364.588 -119.314 345.213 -105.435 331.942C-91.4273 318.547 -63.3126 326.374 -55.0224 308.906C-39.2474 275.669 -73.3952 227.945 -45.0471 204.704C-21.3717 185.294 -1.08633 231.825 19.6211 247.711C32.2358 257.388 40.2485 272.196 53.8048 280.538C64.5535 287.153 77.0951 291.447 90.4363 291.291C122.756 290.912 161.328 263.326 187.612 278.971C206.378 290.141 195.324 326.015 189.805 350.437C184.55 373.69 168.01 393.591 156.789 415.368C146.967 434.432 143.158 457.648 127.213 471.915Z" stroke="url(#paint17_linear_723_1232)" stroke-opacity="0.8" stroke-width="0.877043"/>
<path opacity="0.558824" fill-rule="evenodd" clip-rule="evenodd" d="M134.927 469.589C118.61 484.189 93.5618 477.436 76.839 491.481C57.7637 507.502 56.4829 557.446 34.9867 553.525C5.85687 548.212 11.3585 498.999 -6.66438 476.252C-13.1765 468.033 -24.4306 462.382 -35.5497 464.499C-65.9145 470.28 -95.9537 505.853 -124.003 498.592C-142.77 493.734 -134.627 459.862 -134.68 438.838C-134.729 419.391 -130.851 399.557 -124.301 380.202C-118.231 362.262 -111.601 342.887 -97.7221 329.616C-83.714 316.221 -55.5993 324.048 -47.3091 306.58C-31.5342 273.343 -65.6819 225.619 -37.3338 202.378C-13.6584 182.968 6.62693 229.499 27.3344 245.385C39.9491 255.062 47.9618 269.87 61.5181 278.212C72.2667 284.827 84.8084 289.121 98.1495 288.965C130.47 288.586 169.041 261 195.326 276.645C214.091 287.815 203.037 323.689 197.518 348.111C192.264 371.364 175.723 391.265 164.503 413.042C154.68 432.106 150.872 455.322 134.927 469.589Z" stroke="url(#paint18_linear_723_1232)" stroke-opacity="0.8" stroke-width="0.877043"/>
<path opacity="0.588235" fill-rule="evenodd" clip-rule="evenodd" d="M142.64 467.263C126.323 481.863 101.275 475.11 84.552 489.155C65.4768 505.176 64.196 555.12 42.6997 551.199C13.5699 545.887 19.0716 496.673 1.04869 473.926C-5.46341 465.707 -16.7175 460.056 -27.8367 462.173C-58.2014 467.954 -88.2406 503.527 -116.29 496.266C-135.057 491.408 -126.914 457.536 -126.967 436.512C-127.016 417.065 -123.138 397.231 -116.588 377.876C-110.518 359.936 -103.888 340.561 -90.0091 327.29C-76.0009 313.895 -47.8863 321.722 -39.596 304.254C-23.8211 271.017 -57.9688 223.293 -29.6207 200.052C-5.94532 180.642 14.34 227.173 35.0475 243.059C47.6622 252.736 55.6749 267.544 69.2312 275.887C79.9798 282.501 92.5215 286.795 105.863 286.639C138.183 286.261 176.754 258.674 203.039 274.319C221.804 285.489 210.75 321.363 205.231 345.786C199.977 369.039 183.436 388.939 172.216 410.716C162.393 429.78 158.585 452.996 142.64 467.263Z" stroke="url(#paint19_linear_723_1232)" stroke-opacity="0.8" stroke-width="0.877043"/>
<path opacity="0.617647" fill-rule="evenodd" clip-rule="evenodd" d="M150.353 464.937C134.036 479.537 108.988 472.784 92.2652 486.829C73.1899 502.85 71.9091 552.794 50.4129 548.873C21.2831 543.561 26.7847 494.347 8.76186 471.6C2.24975 463.381 -9.00432 457.73 -20.1235 459.847C-50.4883 465.628 -80.5274 501.201 -108.577 493.94C-127.344 489.082 -119.201 455.21 -119.254 434.186C-119.303 414.739 -115.424 394.905 -108.875 375.55C-102.805 357.61 -96.1746 338.235 -82.2959 324.964C-68.2878 311.569 -40.1731 319.396 -31.8829 301.928C-16.1079 268.691 -50.2557 220.967 -21.9076 197.726C1.76784 178.316 22.0532 224.847 42.7606 240.733C55.3753 250.41 63.388 265.218 76.9443 273.561C87.693 280.175 100.235 284.469 113.576 284.313C145.896 283.935 184.467 256.348 210.752 271.993C229.518 283.163 218.464 319.037 212.945 343.46C207.69 366.713 191.15 386.613 179.929 408.39C170.106 427.454 166.298 450.67 150.353 464.937Z" stroke="url(#paint20_linear_723_1232)" stroke-opacity="0.8" stroke-width="0.877043"/>
<path opacity="0.647059" fill-rule="evenodd" clip-rule="evenodd" d="M158.066 462.611C141.749 477.211 116.701 470.458 99.9784 484.503C80.9032 500.524 79.6224 550.468 58.1261 546.547C28.9963 541.235 34.4979 492.021 16.4751 469.274C9.96298 461.055 -1.29109 455.404 -12.4103 457.521C-42.775 463.302 -72.8142 498.875 -100.864 491.614C-119.631 486.756 -111.488 452.884 -111.541 431.86C-111.59 412.413 -107.711 392.579 -101.162 373.224C-95.0915 355.284 -88.4614 335.91 -74.5827 322.638C-60.5746 309.244 -32.4599 317.07 -24.1696 299.603C-8.3947 266.365 -42.5424 218.641 -14.1943 195.4C9.48107 175.99 29.7664 222.521 50.4738 238.407C63.0886 248.085 71.1012 262.892 84.6575 271.235C95.4062 277.849 107.948 282.144 121.289 281.987C153.609 281.609 192.181 254.022 218.465 269.667C237.231 280.837 226.177 316.711 220.658 341.134C215.403 364.387 198.863 384.287 187.642 406.064C177.819 425.128 174.011 448.344 158.066 462.611Z" stroke="url(#paint21_linear_723_1232)" stroke-opacity="0.8" stroke-width="0.877043"/>
<path opacity="0.676471" fill-rule="evenodd" clip-rule="evenodd" d="M165.779 460.285C149.462 474.885 124.414 468.132 107.692 482.177C88.6163 498.198 87.3355 548.142 65.8393 544.221C36.7095 538.909 42.2111 489.695 24.1882 466.948C17.6761 458.729 6.42207 453.078 -4.69711 455.195C-35.0619 460.976 -65.101 496.549 -93.1506 489.288C-111.918 484.43 -103.775 450.558 -103.828 429.534C-103.877 410.087 -99.998 390.253 -93.4487 370.898C-87.3783 352.958 -80.7482 333.583 -66.8695 320.312C-52.8614 306.918 -24.7467 314.744 -16.4565 297.276C-0.681536 264.039 -34.8293 216.315 -6.48117 193.074C17.1942 173.664 37.4796 220.195 58.187 236.081C70.8017 245.758 78.8144 260.566 92.3707 268.909C103.119 275.523 115.661 279.818 129.002 279.661C161.322 279.283 199.894 251.696 226.178 267.341C244.944 278.511 233.89 314.385 228.371 338.808C223.116 362.061 206.576 381.961 195.355 403.738C185.533 422.802 181.724 446.018 165.779 460.285Z" stroke="url(#paint22_linear_723_1232)" stroke-opacity="0.8" stroke-width="0.877043"/>
<path opacity="0.705882" fill-rule="evenodd" clip-rule="evenodd" d="M173.493 457.959C157.175 472.56 132.128 465.807 115.405 479.851C96.3295 495.872 95.0487 545.816 73.5524 541.895C44.4226 536.583 49.9242 487.369 31.9014 464.622C25.3893 456.403 14.1352 450.752 3.01603 452.869C-27.3487 458.651 -57.3879 494.223 -85.4375 486.962C-104.205 482.104 -96.0617 448.232 -96.1146 427.208C-96.1636 407.761 -92.2849 387.927 -85.7356 368.572C-79.6652 350.632 -73.0351 331.258 -59.1564 317.986C-45.1483 304.592 -17.0336 312.418 -8.74333 294.951C7.0316 261.713 -27.1161 213.989 1.23197 190.748C24.9074 171.338 45.1927 217.869 65.9001 233.755C78.5149 243.433 86.5275 258.24 100.084 266.583C110.833 273.197 123.374 277.492 136.715 277.335C169.035 276.957 207.607 249.37 233.892 265.015C252.657 276.185 241.603 312.059 236.084 336.482C230.829 359.735 214.289 379.635 203.068 401.413C193.246 420.476 189.437 443.692 173.493 457.959Z" stroke="url(#paint23_linear_723_1232)" stroke-opacity="0.8" stroke-width="0.877043"/>
<path opacity="0.735294" fill-rule="evenodd" clip-rule="evenodd" d="M181.206 455.634C164.889 470.234 139.841 463.481 123.118 477.525C104.043 493.546 102.762 543.49 81.2656 539.57C52.1358 534.257 57.6374 485.043 39.6146 462.296C33.1025 454.077 21.8484 448.426 10.7292 450.543C-19.6355 456.325 -49.6747 491.897 -77.7243 484.636C-96.4915 479.778 -88.3485 445.906 -88.4014 424.882C-88.4504 405.435 -84.5717 385.601 -78.0224 366.246C-71.952 348.306 -65.3219 328.932 -51.4432 315.661C-37.4351 302.266 -9.32038 310.092 -1.03014 292.625C14.7448 259.387 -19.4029 211.663 8.94516 188.422C32.6206 169.012 52.9059 215.543 73.6133 231.429C86.2281 241.107 94.2407 255.914 107.797 264.257C118.546 270.872 131.087 275.166 144.428 275.009C176.749 274.631 215.32 247.044 241.605 262.689C260.37 273.859 249.316 309.733 243.797 334.156C238.543 357.409 222.002 377.309 210.782 399.087C200.959 418.15 197.151 441.366 181.206 455.634Z" stroke="url(#paint24_linear_723_1232)" stroke-opacity="0.8" stroke-width="0.877043"/>
<path opacity="0.764706" fill-rule="evenodd" clip-rule="evenodd" d="M188.919 453.308C172.602 467.908 147.554 461.155 130.831 475.199C111.756 491.22 110.475 541.164 88.9789 537.244C59.8491 531.931 65.3507 482.717 47.3278 459.97C40.8157 451.751 29.5617 446.1 18.4425 448.217C-11.9223 453.999 -41.9614 489.571 -70.011 482.31C-88.7783 477.452 -80.6352 443.58 -80.6882 422.556C-80.7372 403.109 -76.8584 383.275 -70.3092 363.92C-64.2387 345.98 -57.6086 326.606 -43.7299 313.335C-29.7218 299.94 -1.60713 307.766 6.68312 290.299C22.4581 257.061 -11.6897 209.337 16.6584 186.096C40.3338 166.686 60.6191 213.217 81.3266 229.103C93.9413 238.781 101.954 253.588 115.51 261.931C126.259 268.546 138.801 272.84 152.142 272.683C184.462 272.305 223.033 244.718 249.318 260.363C268.084 271.533 257.029 307.407 251.51 331.83C246.256 355.083 229.716 374.983 218.495 396.761C208.672 415.824 204.864 439.04 188.919 453.308Z" stroke="url(#paint25_linear_723_1232)" stroke-opacity="0.8" stroke-width="0.877043"/>
<path opacity="0.794118" fill-rule="evenodd" clip-rule="evenodd" d="M196.632 450.982C180.315 465.582 155.267 458.829 138.544 472.874C119.469 488.894 118.188 538.838 96.6921 534.918C67.5623 529.605 73.0639 480.392 55.041 457.644C48.5289 449.425 37.2749 443.775 26.1557 445.892C-4.20908 451.673 -34.2482 487.245 -62.2978 479.984C-81.0651 475.126 -72.922 441.254 -72.975 420.231C-73.0239 400.784 -69.1452 380.949 -62.5959 361.594C-56.5255 343.655 -49.8954 324.28 -36.0167 311.009C-22.0086 297.614 6.10608 305.44 14.3963 287.973C30.1713 254.735 -3.97648 207.011 24.3716 183.771C48.047 164.361 68.3324 210.892 89.0398 226.777C101.655 236.455 109.667 251.262 123.224 259.605C133.972 266.22 146.514 270.514 159.855 270.358C192.175 269.979 230.747 242.392 257.031 258.037C275.797 269.207 264.743 305.082 259.224 329.504C253.969 352.757 237.429 372.657 226.208 394.435C216.385 413.499 212.577 436.715 196.632 450.982Z" stroke="url(#paint26_linear_723_1232)" stroke-opacity="0.8" stroke-width="0.877043"/>
<path opacity="0.823529" fill-rule="evenodd" clip-rule="evenodd" d="M204.345 448.656C188.028 463.256 162.98 456.503 146.258 470.548C127.182 486.568 125.901 536.512 104.405 532.592C75.2754 527.279 80.777 478.065 62.7542 455.318C56.2421 447.099 44.988 441.449 33.8688 443.566C3.50404 449.347 -26.5351 484.919 -54.5847 477.658C-73.3519 472.8 -65.2089 438.928 -65.2619 417.905C-65.3108 398.458 -61.4321 378.623 -54.8828 359.268C-48.8124 341.328 -42.1823 321.954 -28.3036 308.683C-14.2955 295.288 13.8192 303.114 22.1094 285.647C37.8844 252.409 3.73664 204.685 32.0847 181.444C55.7602 162.035 76.0455 208.566 96.7529 224.451C109.368 234.129 117.38 248.936 130.937 257.279C141.685 263.894 154.227 268.188 167.568 268.031C199.888 267.653 238.46 240.066 264.744 255.711C283.51 266.881 272.456 302.755 266.937 327.178C261.682 350.431 245.142 370.331 233.921 392.109C224.098 411.173 220.29 434.389 204.345 448.656Z" stroke="url(#paint27_linear_723_1232)" stroke-opacity="0.8" stroke-width="0.877043"/>
<path opacity="0.852941" fill-rule="evenodd" clip-rule="evenodd" d="M212.059 446.33C195.741 460.93 170.694 454.177 153.971 468.222C134.895 484.242 133.615 534.186 112.118 530.266C82.9886 524.953 88.4902 475.74 70.4674 452.992C63.9553 444.773 52.7012 439.123 41.582 441.24C11.2172 447.021 -18.8219 482.593 -46.8715 475.332C-65.6387 470.474 -57.4957 436.602 -57.5487 415.579C-57.5976 396.132 -53.7189 376.297 -47.1696 356.942C-41.0992 339.003 -34.4691 319.628 -20.5904 306.357C-6.58228 292.962 21.5324 300.788 29.8226 283.321C45.5976 250.083 11.4498 202.359 39.7979 179.119C63.4733 159.709 83.7587 206.24 104.466 222.125C117.081 231.803 125.094 246.61 138.65 254.953C149.398 261.568 161.94 265.862 175.281 265.706C207.601 265.327 246.173 237.74 272.457 253.385C291.223 264.555 280.169 300.43 274.65 324.852C269.395 348.105 252.855 368.005 241.634 389.783C231.812 408.847 228.003 432.063 212.059 446.33Z" stroke="url(#paint28_linear_723_1232)" stroke-opacity="0.8" stroke-width="0.877043"/>
<path opacity="0.882353" fill-rule="evenodd" clip-rule="evenodd" d="M219.772 444.004C203.455 458.604 178.407 451.851 161.684 465.896C142.609 481.916 141.328 531.86 119.832 527.94C90.7018 522.627 96.2034 473.414 78.1806 450.666C71.6685 442.447 60.4144 436.797 49.2952 438.914C18.9304 444.695 -11.1087 480.267 -39.1583 473.007C-57.9255 468.148 -49.7825 434.277 -49.8354 413.253C-49.8844 393.806 -46.0057 373.971 -39.4564 354.617C-33.386 336.677 -26.7559 317.302 -12.8772 304.031C1.13093 290.636 29.2456 298.462 37.5359 280.995C53.3108 247.757 19.163 200.033 47.5112 176.793C71.1866 157.383 91.4719 203.914 112.179 219.8C124.794 229.477 132.807 244.284 146.363 252.627C157.112 259.242 169.653 263.536 182.994 263.38C215.315 263.001 253.886 235.414 280.171 251.059C298.936 262.229 287.882 298.104 282.363 322.526C277.109 345.779 260.568 365.68 249.348 387.457C239.525 406.521 235.717 429.737 219.772 444.004Z" stroke="url(#paint29_linear_723_1232)" stroke-opacity="0.8" stroke-width="0.877043"/>
<path opacity="0.911765" fill-rule="evenodd" clip-rule="evenodd" d="M227.485 441.678C211.168 456.278 186.12 449.525 169.397 463.57C150.322 479.59 149.041 529.534 127.545 525.614C98.415 520.301 103.917 471.088 85.8938 448.34C79.3817 440.121 68.1276 434.471 57.0084 436.588C26.6436 442.369 -3.39553 477.941 -31.4451 470.681C-50.2123 465.822 -42.0693 431.951 -42.1223 410.927C-42.1712 391.48 -38.2925 371.645 -31.7432 352.291C-25.6728 334.351 -19.0427 314.976 -5.164 301.705C8.84412 288.31 36.9588 296.136 45.249 278.669C61.024 245.431 26.8762 197.707 55.2243 174.467C78.8997 155.057 99.1851 201.588 119.893 217.474C132.507 227.151 140.52 241.958 154.076 250.301C164.825 256.916 177.367 261.21 190.708 261.054C223.028 260.675 261.599 233.088 287.884 248.733C306.649 259.903 295.595 295.778 290.076 320.2C284.822 343.453 268.281 363.354 257.061 385.131C247.238 404.195 243.43 427.411 227.485 441.678Z" stroke="url(#paint30_linear_723_1232)" stroke-opacity="0.8" stroke-width="0.877043"/>
<path opacity="0.941176" fill-rule="evenodd" clip-rule="evenodd" d="M235.198 439.352C218.881 453.952 193.833 447.199 177.11 461.244C158.035 477.264 156.754 527.208 135.258 523.288C106.128 517.975 111.63 468.762 93.607 446.015C87.0949 437.795 75.8408 432.145 64.7217 434.262C34.3569 440.043 4.31775 475.616 -23.7318 468.355C-42.4991 463.497 -34.3561 429.625 -34.409 408.601C-34.458 389.154 -30.5792 369.319 -24.03 349.965C-17.9595 332.025 -11.3294 312.65 2.54927 299.379C16.5574 285.984 44.6721 293.81 52.9623 276.343C68.7372 243.105 34.5895 195.381 62.9376 172.141C86.613 152.731 106.898 199.262 127.606 215.148C140.221 224.825 148.233 239.632 161.789 247.975C172.538 254.59 185.08 258.884 198.421 258.728C230.741 258.349 269.313 230.762 295.597 246.408C314.363 257.577 303.309 293.452 297.79 317.874C292.535 341.127 275.995 361.028 264.774 382.805C254.951 401.869 251.143 425.085 235.198 439.352Z" stroke="url(#paint31_linear_723_1232)" stroke-opacity="0.8" stroke-width="0.877043"/>
<path opacity="0.970588" fill-rule="evenodd" clip-rule="evenodd" d="M242.911 437.026C226.594 451.626 201.546 444.873 184.824 458.918C165.748 474.938 164.467 524.882 142.971 520.962C113.841 515.649 119.343 466.436 101.32 443.689C94.8081 435.469 83.554 429.819 72.4349 431.936C42.0701 437.717 12.0309 473.29 -16.0186 466.029C-34.7859 461.171 -26.6429 427.299 -26.6958 406.275C-26.7448 386.828 -22.866 366.993 -16.3168 347.639C-10.2463 329.699 -3.61625 310.324 10.2625 297.053C24.2706 283.658 52.3852 291.485 60.6755 274.017C76.4504 240.779 42.3027 193.056 70.6508 169.815C94.3262 150.405 114.612 196.936 135.319 212.822C147.934 222.499 155.946 237.306 169.503 245.649C180.251 252.264 192.793 256.558 206.134 256.402C238.454 256.023 277.026 228.436 303.31 244.082C322.076 255.251 311.022 291.126 305.503 315.548C300.248 338.801 283.708 358.702 272.487 380.479C262.664 399.543 258.856 422.759 242.911 437.026Z" stroke="url(#paint32_linear_723_1232)" stroke-opacity="0.8" stroke-width="0.877043"/>
<path fill-rule="evenodd" clip-rule="evenodd" d="M250.702 435.069C234.385 449.669 209.337 442.916 192.614 456.961C173.539 472.981 172.258 522.925 150.762 519.005C121.632 513.692 127.134 464.479 109.111 441.731C102.599 433.512 91.3446 427.862 80.2254 429.979C49.8607 435.76 19.8215 471.332 -8.22805 464.072C-26.9953 459.213 -18.8523 425.341 -18.9052 404.318C-18.9542 384.871 -15.0754 365.036 -8.52619 345.681C-2.45574 327.742 4.17434 308.367 18.053 295.096C32.0612 281.701 60.1758 289.527 68.4661 272.06C84.241 238.822 50.0933 191.098 78.4414 167.858C102.117 148.448 122.402 194.979 143.11 210.864C155.724 220.542 163.737 235.349 177.293 243.692C188.042 250.307 200.584 254.601 213.925 254.445C246.245 254.066 284.816 226.479 311.101 242.124C329.867 253.294 318.812 289.169 313.293 313.591C308.039 336.844 291.499 356.744 280.278 378.522C270.455 397.586 266.647 420.802 250.702 435.069Z" stroke="url(#paint33_linear_723_1232)" stroke-opacity="0.8" stroke-width="0.877043"/>
<path fill-rule="evenodd" clip-rule="evenodd" d="M258.245 431.933C241.928 446.534 216.88 439.78 200.157 453.825C181.082 469.846 179.801 519.79 158.305 515.869C129.175 510.557 134.677 461.343 116.654 438.596C110.142 430.377 98.8876 424.726 87.7685 426.843C57.4037 432.625 27.3645 468.197 -0.685017 460.936C-19.4523 456.078 -11.3093 422.206 -11.3622 401.182C-11.4112 381.735 -7.53241 361.901 -0.983163 342.546C5.08729 324.606 11.7174 305.232 25.5961 291.96C39.6042 278.566 67.7189 286.392 76.0091 268.925C91.784 235.687 57.6363 187.963 85.9844 164.722C109.66 145.312 129.945 191.843 150.653 207.729C163.267 217.407 171.28 232.214 184.836 240.557C195.585 247.171 208.127 251.466 221.468 251.309C253.788 250.931 292.359 223.344 318.644 238.989C337.41 250.159 326.355 286.033 320.836 310.456C315.582 333.709 299.042 353.609 287.821 375.387C277.998 394.45 274.19 417.666 258.245 431.933Z" stroke="url(#paint34_linear_723_1232)" stroke-opacity="0.8" stroke-width="0.877043"/>
</g>
</svg>
