<svg width="791" height="769" viewBox="0 0 791 769" fill="none" xmlns="http://www.w3.org/2000/svg">
    <defs>
        <linearGradient id="paint0_linear_755_397" x1="654.306" y1="239.524" x2="498.266" y2="223.573" gradientUnits="userSpaceOnUse">
            <stop stop-color="#26166D"/>
            <stop offset="0.385417" stop-color="#38219C"/>
            <stop offset="0.864583" stop-color="#38219C"/>
        </linearGradient>
        <linearGradient id="paint1_linear_755_397" x1="646.02" y1="241.23" x2="489.98" y2="225.279" gradientUnits="userSpaceOnUse">
            <stop stop-color="#26166D"/>
            <stop offset="0.385417" stop-color="#38219C"/>
            <stop offset="0.864583" stop-color="#38219C"/>
        </linearGradient>
        <linearGradient id="paint2_linear_755_397" x1="637.734" y1="242.936" x2="481.694" y2="226.985" gradientUnits="userSpaceOnUse">
            <stop stop-color="#26166D"/>
            <stop offset="0.385417" stop-color="#38219C"/>
            <stop offset="0.864583" stop-color="#38219C"/>
        </linearGradient>
        <linearGradient id="paint3_linear_755_397" x1="629.448" y1="244.642" x2="473.408" y2="228.691" gradientUnits="userSpaceOnUse">
            <stop stop-color="#26166D"/>
            <stop offset="0.385417" stop-color="#38219C"/>
            <stop offset="0.864583" stop-color="#38219C"/>
        </linearGradient>
        <linearGradient id="paint4_linear_755_397" x1="621.163" y1="246.348" x2="465.123" y2="230.397" gradientUnits="userSpaceOnUse">
            <stop stop-color="#26166D"/>
            <stop offset="0.385417" stop-color="#38219C"/>
            <stop offset="0.864583" stop-color="#38219C"/>
        </linearGradient>
        <linearGradient id="paint5_linear_755_397" x1="612.877" y1="248.054" x2="456.837" y2="232.103" gradientUnits="userSpaceOnUse">
            <stop stop-color="#26166D"/>
            <stop offset="0.385417" stop-color="#38219C"/>
            <stop offset="0.864583" stop-color="#38219C"/>
        </linearGradient>
        <linearGradient id="paint6_linear_755_397" x1="604.591" y1="249.76" x2="448.551" y2="233.809" gradientUnits="userSpaceOnUse">
            <stop stop-color="#26166D"/>
            <stop offset="0.385417" stop-color="#38219C"/>
            <stop offset="0.864583" stop-color="#38219C"/>
        </linearGradient>
        <linearGradient id="paint7_linear_755_397" x1="596.305" y1="251.466" x2="440.266" y2="235.515" gradientUnits="userSpaceOnUse">
            <stop stop-color="#26166D"/>
            <stop offset="0.385417" stop-color="#38219C"/>
            <stop offset="0.864583" stop-color="#38219C"/>
        </linearGradient>
        <linearGradient id="paint8_linear_755_397" x1="588.02" y1="253.172" x2="431.98" y2="237.221" gradientUnits="userSpaceOnUse">
            <stop stop-color="#26166D"/>
            <stop offset="0.385417" stop-color="#38219C"/>
            <stop offset="0.864583" stop-color="#38219C"/>
        </linearGradient>
        <linearGradient id="paint9_linear_755_397" x1="579.734" y1="254.878" x2="423.694" y2="238.927" gradientUnits="userSpaceOnUse">
            <stop stop-color="#26166D"/>
            <stop offset="0.385417" stop-color="#38219C"/>
            <stop offset="0.864583" stop-color="#38219C"/>
        </linearGradient>
        <linearGradient id="paint10_linear_755_397" x1="571.448" y1="256.584" x2="415.408" y2="240.633" gradientUnits="userSpaceOnUse">
            <stop stop-color="#26166D"/>
            <stop offset="0.385417" stop-color="#38219C"/>
            <stop offset="0.864583" stop-color="#38219C"/>
        </linearGradient>
        <linearGradient id="paint11_linear_755_397" x1="563.163" y1="258.29" x2="407.123" y2="242.339" gradientUnits="userSpaceOnUse">
            <stop stop-color="#26166D"/>
            <stop offset="0.385417" stop-color="#38219C"/>
            <stop offset="0.864583" stop-color="#38219C"/>
        </linearGradient>
        <linearGradient id="paint12_linear_755_397" x1="554.877" y1="259.996" x2="398.837" y2="244.045" gradientUnits="userSpaceOnUse">
            <stop stop-color="#26166D"/>
            <stop offset="0.385417" stop-color="#38219C"/>
            <stop offset="0.864583" stop-color="#38219C"/>
        </linearGradient>
        <linearGradient id="paint13_linear_755_397" x1="546.591" y1="261.702" x2="390.551" y2="245.751" gradientUnits="userSpaceOnUse">
            <stop stop-color="#26166D"/>
            <stop offset="0.385417" stop-color="#38219C"/>
            <stop offset="0.864583" stop-color="#38219C"/>
        </linearGradient>
        <linearGradient id="paint14_linear_755_397" x1="538.305" y1="263.408" x2="382.265" y2="247.457" gradientUnits="userSpaceOnUse">
            <stop stop-color="#26166D"/>
            <stop offset="0.385417" stop-color="#38219C"/>
            <stop offset="0.864583" stop-color="#38219C"/>
        </linearGradient>
        <linearGradient id="paint15_linear_755_397" x1="530.02" y1="265.114" x2="373.98" y2="249.163" gradientUnits="userSpaceOnUse">
            <stop stop-color="#26166D"/>
            <stop offset="0.385417" stop-color="#38219C"/>
            <stop offset="0.864583" stop-color="#38219C"/>
        </linearGradient>
        <linearGradient id="paint16_linear_755_397" x1="521.734" y1="266.82" x2="365.694" y2="250.869" gradientUnits="userSpaceOnUse">
            <stop stop-color="#26166D"/>
            <stop offset="0.385417" stop-color="#38219C"/>
            <stop offset="0.864583" stop-color="#38219C"/>
        </linearGradient>
        <linearGradient id="paint17_linear_755_397" x1="513.448" y1="268.526" x2="357.408" y2="252.575" gradientUnits="userSpaceOnUse">
            <stop stop-color="#26166D"/>
            <stop offset="0.385417" stop-color="#38219C"/>
            <stop offset="0.864583" stop-color="#38219C"/>
        </linearGradient>
        <linearGradient id="paint18_linear_755_397" x1="505.162" y1="270.232" x2="349.122" y2="254.281" gradientUnits="userSpaceOnUse">
            <stop stop-color="#26166D"/>
            <stop offset="0.385417" stop-color="#38219C"/>
            <stop offset="0.864583" stop-color="#38219C"/>
        </linearGradient>
        <linearGradient id="paint19_linear_755_397" x1="496.877" y1="271.938" x2="340.837" y2="255.987" gradientUnits="userSpaceOnUse">
            <stop stop-color="#26166D"/>
            <stop offset="0.385417" stop-color="#38219C"/>
            <stop offset="0.864583" stop-color="#38219C"/>
        </linearGradient>
        <linearGradient id="paint20_linear_755_397" x1="488.591" y1="273.644" x2="332.551" y2="257.693" gradientUnits="userSpaceOnUse">
            <stop stop-color="#26166D"/>
            <stop offset="0.385417" stop-color="#38219C"/>
            <stop offset="0.864583" stop-color="#38219C"/>
        </linearGradient>
        <linearGradient id="paint21_linear_755_397" x1="480.305" y1="275.35" x2="324.265" y2="259.399" gradientUnits="userSpaceOnUse">
            <stop stop-color="#26166D"/>
            <stop offset="0.385417" stop-color="#38219C"/>
            <stop offset="0.864583" stop-color="#38219C"/>
        </linearGradient>
        <linearGradient id="paint22_linear_755_397" x1="472.019" y1="277.056" x2="315.979" y2="261.105" gradientUnits="userSpaceOnUse">
            <stop stop-color="#26166D"/>
            <stop offset="0.385417" stop-color="#38219C"/>
            <stop offset="0.864583" stop-color="#38219C"/>
        </linearGradient>
        <linearGradient id="paint23_linear_755_397" x1="463.734" y1="278.762" x2="307.694" y2="262.811" gradientUnits="userSpaceOnUse">
            <stop stop-color="#26166D"/>
            <stop offset="0.385417" stop-color="#38219C"/>
            <stop offset="0.864583" stop-color="#38219C"/>
        </linearGradient>
        <linearGradient id="paint24_linear_755_397" x1="455.448" y1="280.468" x2="299.408" y2="264.517" gradientUnits="userSpaceOnUse">
            <stop stop-color="#26166D"/>
            <stop offset="0.385417" stop-color="#38219C"/>
            <stop offset="0.864583" stop-color="#38219C"/>
        </linearGradient>
        <linearGradient id="paint25_linear_755_397" x1="447.162" y1="282.174" x2="291.122" y2="266.223" gradientUnits="userSpaceOnUse">
            <stop stop-color="#26166D"/>
            <stop offset="0.385417" stop-color="#38219C"/>
            <stop offset="0.864583" stop-color="#38219C"/>
        </linearGradient>
        <linearGradient id="paint26_linear_755_397" x1="438.876" y1="283.88" x2="282.836" y2="267.929" gradientUnits="userSpaceOnUse">
            <stop stop-color="#26166D"/>
            <stop offset="0.385417" stop-color="#38219C"/>
            <stop offset="0.864583" stop-color="#38219C"/>
        </linearGradient>
        <linearGradient id="paint27_linear_755_397" x1="430.591" y1="285.586" x2="274.551" y2="269.635" gradientUnits="userSpaceOnUse">
            <stop stop-color="#26166D"/>
            <stop offset="0.385417" stop-color="#38219C"/>
            <stop offset="0.864583" stop-color="#38219C"/>
        </linearGradient>
        <linearGradient id="paint28_linear_755_397" x1="422.305" y1="287.292" x2="266.265" y2="271.341" gradientUnits="userSpaceOnUse">
            <stop stop-color="#26166D"/>
            <stop offset="0.385417" stop-color="#38219C"/>
            <stop offset="0.864583" stop-color="#38219C"/>
        </linearGradient>
        <linearGradient id="paint29_linear_755_397" x1="414.019" y1="288.998" x2="257.979" y2="273.047" gradientUnits="userSpaceOnUse">
            <stop stop-color="#26166D"/>
            <stop offset="0.385417" stop-color="#38219C"/>
            <stop offset="0.864583" stop-color="#38219C"/>
        </linearGradient>
        <linearGradient id="paint30_linear_755_397" x1="405.734" y1="290.704" x2="249.694" y2="274.753" gradientUnits="userSpaceOnUse">
            <stop stop-color="#26166D"/>
            <stop offset="0.385417" stop-color="#38219C"/>
            <stop offset="0.864583" stop-color="#38219C"/>
        </linearGradient>
        <linearGradient id="paint31_linear_755_397" x1="397.448" y1="292.41" x2="241.408" y2="276.459" gradientUnits="userSpaceOnUse">
            <stop stop-color="#26166D"/>
            <stop offset="0.385417" stop-color="#38219C"/>
            <stop offset="0.864583" stop-color="#38219C"/>
        </linearGradient>
        <linearGradient id="paint32_linear_755_397" x1="389.162" y1="294.116" x2="233.122" y2="278.165" gradientUnits="userSpaceOnUse">
            <stop stop-color="#26166D"/>
            <stop offset="0.385417" stop-color="#38219C"/>
            <stop offset="0.864583" stop-color="#38219C"/>
        </linearGradient>
        <linearGradient id="paint33_linear_755_397" x1="380.887" y1="295.428" x2="224.848" y2="279.477" gradientUnits="userSpaceOnUse">
            <stop stop-color="#26166D"/>
            <stop offset="0.385417" stop-color="#38219C"/>
            <stop offset="0.864583" stop-color="#38219C"/>
        </linearGradient>
        <linearGradient id="paint34_linear_755_397" x1="372.578" y1="297.998" x2="216.538" y2="282.048" gradientUnits="userSpaceOnUse">
            <stop stop-color="#26166D"/>
            <stop offset="0.385417" stop-color="#38219C"/>
            <stop offset="0.864583" stop-color="#38219C"/>
        </linearGradient>
    </defs>
<g opacity="0.6">
<path opacity="0.0294118" fill-rule="evenodd" clip-rule="evenodd" d="M445.928 248.932C466.973 235.597 489.913 244.908 511.187 232.179C535.453 217.66 552.774 166.787 573.064 172.862C600.558 181.095 579.24 230.816 590.002 255.78C593.89 264.8 603.357 271.655 615.183 270.566C647.478 267.59 689.013 234.164 714.799 244.282C732.051 251.052 713.012 284.853 706.314 306.325C700.118 326.187 689.861 346.065 677.08 365.197C665.234 382.93 652.367 402.074 634.193 414.286C615.849 426.613 590.18 415.911 576.26 432.947C549.774 465.365 568.679 517.387 532.799 538.384C502.834 555.921 497.441 506.453 481.785 488.236C472.247 477.138 468.97 461.246 458.06 451.421C449.409 443.63 438.216 438.036 424.793 436.909C392.273 434.18 344.749 458.629 323.425 440.12C308.201 426.906 330.801 391.341 344.176 366.936C356.911 343.699 379.881 324.974 398.122 303.819C414.091 285.301 425.363 261.962 445.928 248.932Z" stroke="url(#paint0_linear_755_397)" stroke-opacity="0.8" stroke-width="0.762275"/>
<path opacity="0.0588235" fill-rule="evenodd" clip-rule="evenodd" d="M437.642 250.638C458.687 237.304 481.627 246.614 502.901 233.885C527.167 219.366 544.488 168.493 564.778 174.568C592.272 182.802 570.954 232.522 581.716 257.487C585.604 266.507 595.071 273.362 606.897 272.272C639.192 269.297 680.727 235.87 706.513 245.989C723.766 252.759 704.726 286.559 698.028 308.032C691.832 327.893 681.575 347.772 668.794 366.903C656.948 384.636 644.081 403.78 625.907 415.993C607.563 428.319 581.894 417.617 567.974 434.654C541.488 467.071 560.393 519.093 524.514 540.091C494.548 557.627 489.155 508.159 473.499 489.942C463.961 478.845 460.684 462.952 449.774 453.127C441.124 445.336 429.93 439.742 416.507 438.616C383.987 435.886 336.463 460.336 315.139 441.826C299.915 428.612 322.515 393.047 335.89 368.642C348.625 345.405 371.595 326.68 389.837 305.526C405.805 287.007 417.077 263.669 437.642 250.638Z" stroke="url(#paint1_linear_755_397)" stroke-opacity="0.8" stroke-width="0.762275"/>
<path opacity="0.0882353" fill-rule="evenodd" clip-rule="evenodd" d="M429.356 252.344C450.401 239.009 473.342 248.32 494.615 235.591C518.881 221.072 536.203 170.199 556.492 176.274C583.986 184.508 562.668 234.228 573.43 259.192C577.319 268.213 586.786 275.067 598.611 273.978C630.906 271.002 672.441 237.576 698.227 247.695C715.48 254.464 696.44 288.265 689.742 309.737C683.546 329.599 673.289 349.478 660.509 368.609C648.663 386.342 635.795 405.486 617.621 417.698C599.278 430.025 573.608 419.323 559.689 436.359C533.202 468.777 552.108 520.799 516.228 541.797C486.262 559.333 480.87 509.865 465.213 491.648C455.676 480.55 452.398 464.658 441.488 454.833C432.838 447.042 421.645 441.448 408.221 440.322C375.701 437.592 328.177 462.042 306.853 443.532C291.629 430.318 314.23 394.753 327.605 370.348C340.339 347.111 363.31 328.386 381.551 307.231C397.519 288.713 408.791 265.375 429.356 252.344Z" stroke="url(#paint2_linear_755_397)" stroke-opacity="0.8" stroke-width="0.762275"/>
<path opacity="0.117647" fill-rule="evenodd" clip-rule="evenodd" d="M421.071 254.05C442.116 240.716 465.056 250.026 486.329 237.297C510.595 222.778 527.917 171.905 548.206 177.98C575.701 186.214 554.382 235.934 565.144 260.899C569.033 269.919 578.5 276.774 590.326 275.684C622.621 272.709 664.155 239.282 689.941 249.401C707.194 256.171 688.154 289.971 681.456 311.444C675.261 331.305 665.003 351.184 652.223 370.315C640.377 388.048 627.509 407.192 609.335 419.405C590.992 431.731 565.322 421.029 551.403 438.066C524.917 470.483 543.822 522.505 507.942 543.503C477.977 561.039 472.584 511.571 456.928 493.354C447.39 482.257 444.113 466.364 433.203 456.539C424.552 448.748 413.359 443.154 399.935 442.028C367.415 439.298 319.892 463.748 298.567 445.238C283.343 432.024 305.944 396.459 319.319 372.054C332.053 348.817 355.024 330.092 373.265 308.938C389.233 290.419 400.506 267.081 421.071 254.05Z" stroke="url(#paint3_linear_755_397)" stroke-opacity="0.8" stroke-width="0.762275"/>
<path opacity="0.147059" fill-rule="evenodd" clip-rule="evenodd" d="M412.785 255.756C433.83 242.421 456.77 251.732 478.044 239.003C502.31 224.484 519.631 173.611 539.921 179.686C567.415 187.92 546.097 237.64 556.859 262.604C560.747 271.625 570.214 278.479 582.04 277.39C614.335 274.414 655.87 240.988 681.656 251.107C698.908 257.876 679.869 291.677 673.171 313.149C666.975 333.011 656.718 352.89 643.937 372.021C632.091 389.754 619.224 408.898 601.05 421.11C582.706 433.437 557.037 422.735 543.117 439.771C516.631 472.189 535.536 524.211 499.656 545.209C469.691 562.745 464.298 513.277 448.642 495.06C439.104 483.962 435.827 468.07 424.917 458.245C416.266 450.454 405.073 444.86 391.65 443.734C359.13 441.004 311.606 465.454 290.282 446.944C275.058 433.73 297.658 398.165 311.033 373.76C323.768 350.523 346.738 331.798 364.979 310.643C380.948 292.125 392.22 268.787 412.785 255.756Z" stroke="url(#paint4_linear_755_397)" stroke-opacity="0.8" stroke-width="0.762275"/>
<path opacity="0.176471" fill-rule="evenodd" clip-rule="evenodd" d="M404.499 257.462C425.544 244.128 448.484 253.438 469.758 240.709C494.024 226.19 511.346 175.317 531.635 181.392C559.129 189.626 537.811 239.346 548.573 264.31C552.462 273.331 561.928 280.186 573.754 279.096C606.049 276.121 647.584 242.694 673.37 252.813C690.623 259.583 671.583 293.383 664.885 314.856C658.689 334.717 648.432 354.596 635.652 373.727C623.806 391.46 610.938 410.604 592.764 422.817C574.421 435.143 548.751 424.441 534.832 441.477C508.345 473.895 527.251 525.917 491.371 546.915C461.405 564.451 456.013 514.983 440.356 496.766C430.819 485.669 427.541 469.776 416.631 459.951C407.981 452.16 396.788 446.566 383.364 445.44C350.844 442.71 303.32 467.16 281.996 448.65C266.772 435.436 289.373 399.871 302.748 375.466C315.482 352.229 338.453 333.504 356.694 312.35C372.662 293.831 383.934 270.493 404.499 257.462Z" stroke="url(#paint5_linear_755_397)" stroke-opacity="0.8" stroke-width="0.762275"/>
<path opacity="0.205882" fill-rule="evenodd" clip-rule="evenodd" d="M396.214 259.168C417.259 245.833 440.199 255.144 461.472 242.415C485.738 227.896 503.06 177.023 523.349 183.098C550.844 191.332 529.525 241.052 540.287 266.016C544.176 275.037 553.643 281.891 565.469 280.802C597.763 277.826 639.298 244.4 665.084 254.519C682.337 261.288 663.297 295.089 656.599 316.561C650.404 336.423 640.146 356.302 627.366 375.433C615.52 393.166 602.652 412.31 584.478 424.522C566.135 436.849 540.465 426.147 526.546 443.183C500.059 475.601 518.965 527.623 483.085 548.62C453.119 566.157 447.727 516.689 432.071 498.472C422.533 487.374 419.256 471.482 408.346 461.657C399.695 453.866 388.502 448.272 375.078 447.146C342.558 444.416 295.035 468.866 273.71 450.356C258.486 437.142 281.087 401.577 294.462 377.172C307.196 353.935 330.167 335.21 348.408 314.055C364.376 295.537 375.649 272.198 396.214 259.168Z" stroke="url(#paint6_linear_755_397)" stroke-opacity="0.8" stroke-width="0.762275"/>
<path opacity="0.235294" fill-rule="evenodd" clip-rule="evenodd" d="M387.928 260.874C408.973 247.539 431.913 256.85 453.186 244.121C477.452 229.602 494.774 178.729 515.064 184.804C542.558 193.038 521.24 242.758 532.002 267.722C535.89 276.743 545.357 283.597 557.183 282.508C589.478 279.532 631.013 246.106 656.798 256.225C674.051 262.995 655.011 296.795 648.313 318.267C642.118 338.129 631.86 358.008 619.08 377.139C607.234 394.872 594.366 414.016 576.192 426.229C557.849 438.555 532.179 427.853 518.26 444.889C491.774 477.307 510.679 529.329 474.799 550.327C444.834 567.863 439.441 518.395 423.785 500.178C414.247 489.08 410.97 473.188 400.06 463.363C391.409 455.572 380.216 449.978 366.792 448.852C334.272 446.122 286.749 470.572 265.425 452.062C250.2 438.848 272.801 403.283 286.176 378.878C298.91 355.641 321.881 336.916 340.122 315.761C356.09 297.243 367.363 273.905 387.928 260.874Z" stroke="url(#paint7_linear_755_397)" stroke-opacity="0.8" stroke-width="0.762275"/>
<path opacity="0.264706" fill-rule="evenodd" clip-rule="evenodd" d="M379.642 262.58C400.687 249.245 423.627 258.556 444.901 245.827C469.167 231.308 486.489 180.435 506.778 186.51C534.272 194.744 512.954 244.464 523.716 269.428C527.604 278.449 537.071 285.303 548.897 284.214C581.192 281.238 622.727 247.812 648.513 257.931C665.766 264.701 646.726 298.501 640.028 319.973C633.832 339.835 623.575 359.714 610.794 378.845C598.948 396.578 586.081 415.722 567.907 427.935C549.563 440.261 523.894 429.559 509.974 446.595C483.488 479.013 502.393 531.035 466.514 552.033C436.548 569.569 431.156 520.101 415.499 501.884C405.961 490.786 402.684 474.894 391.774 465.069C383.124 457.278 371.93 451.684 358.507 450.558C325.987 447.828 278.463 472.278 257.139 453.768C241.915 440.554 264.516 404.989 277.89 380.584C290.625 357.347 313.595 338.622 331.837 317.467C347.805 298.949 359.077 275.611 379.642 262.58Z" stroke="url(#paint8_linear_755_397)" stroke-opacity="0.8" stroke-width="0.762275"/>
<path opacity="0.294118" fill-rule="evenodd" clip-rule="evenodd" d="M371.357 264.286C392.402 250.951 415.342 260.262 436.615 247.533C460.881 233.014 478.203 182.141 498.492 188.216C525.987 196.45 504.668 246.17 515.43 271.134C519.319 280.155 528.786 287.009 540.612 285.92C572.906 282.944 614.441 249.518 640.227 259.636C657.48 266.406 638.44 300.207 631.742 321.679C625.546 341.541 615.289 361.42 602.509 380.551C590.663 398.284 577.795 417.428 559.621 429.64C541.278 441.967 515.608 431.265 501.689 448.301C475.202 480.719 494.108 532.741 458.228 553.738C428.262 571.275 422.87 521.807 407.213 503.59C397.676 492.492 394.399 476.6 383.488 466.775C374.838 458.984 363.645 453.39 350.221 452.264C317.701 449.534 270.178 473.984 248.853 455.474C233.629 442.26 256.23 406.695 269.605 382.29C282.339 359.053 305.31 340.328 323.551 319.173C339.519 300.655 350.792 277.316 371.357 264.286Z" stroke="url(#paint9_linear_755_397)" stroke-opacity="0.8" stroke-width="0.762275"/>
<path opacity="0.323529" fill-rule="evenodd" clip-rule="evenodd" d="M363.071 265.992C384.116 252.657 407.056 261.968 428.329 249.239C452.595 234.72 469.917 183.847 490.206 189.922C517.701 198.156 496.382 247.876 507.144 272.84C511.033 281.861 520.5 288.715 532.326 287.626C564.62 284.65 606.155 251.224 631.941 261.343C649.194 268.112 630.154 301.913 623.456 323.385C617.26 343.247 607.003 363.126 594.223 382.257C582.377 399.99 569.509 419.134 551.335 431.346C532.992 443.673 507.322 432.971 493.403 450.007C466.916 482.425 485.822 534.447 449.942 555.445C419.976 572.981 414.584 523.513 398.927 505.296C389.39 494.198 386.113 478.306 375.203 468.481C366.552 460.69 355.359 455.096 341.935 453.97C309.415 451.24 261.892 475.69 240.567 457.18C225.343 443.966 247.944 408.401 261.319 383.996C274.053 360.759 297.024 342.034 315.265 320.879C331.233 302.361 342.506 279.023 363.071 265.992Z" stroke="url(#paint10_linear_755_397)" stroke-opacity="0.8" stroke-width="0.762275"/>
<path opacity="0.352941" fill-rule="evenodd" clip-rule="evenodd" d="M354.785 267.698C375.83 254.363 398.77 263.674 420.043 250.945C444.309 236.426 461.631 185.553 481.921 191.628C509.415 199.862 488.097 249.582 498.859 274.546C502.747 283.567 512.214 290.421 524.04 289.332C556.335 286.356 597.87 252.93 623.656 263.049C640.908 269.818 621.869 303.619 615.171 325.091C608.975 344.953 598.718 364.832 585.937 383.963C574.091 401.696 561.223 420.84 543.05 433.052C524.706 445.379 499.037 434.677 485.117 451.713C458.631 484.131 477.536 536.153 441.656 557.151C411.691 574.687 406.298 525.219 390.642 507.002C381.104 495.904 377.827 480.012 366.917 470.187C358.266 462.396 347.073 456.802 333.65 455.676C301.129 452.946 253.606 477.396 232.282 458.886C217.057 445.672 239.658 410.107 253.033 385.702C265.768 362.465 288.738 343.74 306.979 322.585C322.948 304.067 334.22 280.729 354.785 267.698Z" stroke="url(#paint11_linear_755_397)" stroke-opacity="0.8" stroke-width="0.762275"/>
<path opacity="0.382353" fill-rule="evenodd" clip-rule="evenodd" d="M346.499 269.404C367.544 256.069 390.484 265.38 411.758 252.651C436.024 238.132 453.345 187.259 473.635 193.334C501.129 201.568 479.811 251.288 490.573 276.252C494.461 285.273 503.928 292.127 515.754 291.038C548.049 288.063 589.584 254.636 615.37 264.755C632.622 271.525 613.583 305.325 606.885 326.797C600.689 346.659 590.432 366.538 577.651 385.669C565.805 403.402 552.938 422.546 534.764 434.759C516.42 447.085 490.751 436.383 476.831 453.419C450.345 485.837 469.25 537.859 433.371 558.857C403.405 576.393 398.012 526.925 382.356 508.708C372.818 497.611 369.541 481.718 358.631 471.893C349.98 464.102 338.787 458.508 325.364 457.382C292.844 454.652 245.32 479.102 223.996 460.592C208.772 447.378 231.372 411.813 244.747 387.408C257.482 364.171 280.452 345.446 298.693 324.292C314.662 305.773 325.934 282.435 346.499 269.404Z" stroke="url(#paint12_linear_755_397)" stroke-opacity="0.8" stroke-width="0.762275"/>
<path opacity="0.411765" fill-rule="evenodd" clip-rule="evenodd" d="M338.213 271.11C359.258 257.775 382.198 267.086 403.472 254.357C427.738 239.838 445.06 188.965 465.349 195.04C492.843 203.274 471.525 252.994 482.287 277.958C486.176 286.979 495.643 293.833 507.468 292.744C539.763 289.769 581.298 256.342 607.084 266.461C624.337 273.231 605.297 307.031 598.599 328.503C592.403 348.365 582.146 368.244 569.366 387.375C557.52 405.108 544.652 424.252 526.478 436.465C508.135 448.791 482.465 438.089 468.546 455.125C442.059 487.543 460.965 539.565 425.085 560.563C395.119 578.099 389.727 528.631 374.07 510.414C364.533 499.316 361.255 483.424 350.345 473.599C341.695 465.808 330.502 460.214 317.078 459.088C284.558 456.358 237.034 480.808 215.71 462.298C200.486 449.084 223.087 413.519 236.462 389.114C249.196 365.877 272.167 347.152 290.408 325.998C306.376 307.479 317.648 284.141 338.213 271.11Z" stroke="url(#paint13_linear_755_397)" stroke-opacity="0.8" stroke-width="0.762275"/>
<path opacity="0.441176" fill-rule="evenodd" clip-rule="evenodd" d="M329.928 272.816C350.973 259.481 373.913 268.792 395.186 256.063C419.452 241.544 436.774 190.671 457.063 196.746C484.558 204.979 463.239 254.7 474.001 279.664C477.89 288.685 487.357 295.539 499.183 294.45C531.478 291.474 573.012 258.048 598.798 268.166C616.051 274.936 597.011 308.737 590.313 330.209C584.118 350.071 573.86 369.95 561.08 389.081C549.234 406.814 536.366 425.958 518.192 438.17C499.849 450.497 474.179 439.795 460.26 456.831C433.774 489.249 452.679 541.271 416.799 562.268C386.834 579.805 381.441 530.337 365.785 512.12C356.247 501.022 352.97 485.13 342.06 475.305C333.409 467.514 322.216 461.92 308.792 460.794C276.272 458.064 228.749 482.513 207.424 464.004C192.2 450.79 214.801 415.225 228.176 390.82C240.91 367.583 263.881 348.858 282.122 327.703C298.09 309.185 309.363 285.846 329.928 272.816Z" stroke="url(#paint14_linear_755_397)" stroke-opacity="0.8" stroke-width="0.762275"/>
<path opacity="0.470588" fill-rule="evenodd" clip-rule="evenodd" d="M321.642 274.522C342.687 261.187 365.627 270.498 386.9 257.769C411.166 243.25 428.488 192.377 448.778 198.452C476.272 206.686 454.954 256.406 465.716 281.37C469.604 290.391 479.071 297.245 490.897 296.156C523.192 293.18 564.727 259.754 590.513 269.873C607.765 276.642 588.726 310.443 582.028 331.915C575.832 351.777 565.575 371.656 552.794 390.787C540.948 408.52 528.081 427.664 509.907 439.876C491.563 452.203 465.894 441.501 451.974 458.537C425.488 490.955 444.393 542.977 408.513 563.974C378.548 581.511 373.155 532.043 357.499 513.826C347.961 502.728 344.684 486.836 333.774 477.011C325.123 469.22 313.93 463.626 300.507 462.5C267.987 459.77 220.463 484.22 199.139 465.71C183.914 452.496 206.515 416.931 219.89 392.526C232.625 369.289 255.595 350.564 273.836 329.409C289.805 310.891 301.077 287.552 321.642 274.522Z" stroke="url(#paint15_linear_755_397)" stroke-opacity="0.8" stroke-width="0.762275"/>
<path opacity="0.5" fill-rule="evenodd" clip-rule="evenodd" d="M313.356 276.228C334.401 262.893 357.341 272.204 378.615 259.475C402.881 244.956 420.202 194.083 440.492 200.158C467.986 208.391 446.668 258.112 457.43 283.076C461.318 292.097 470.785 298.951 482.611 297.862C514.906 294.886 556.441 261.46 582.227 271.578C599.479 278.348 580.44 312.149 573.742 333.621C567.546 353.483 557.289 373.362 544.508 392.493C532.662 410.226 519.795 429.37 501.621 441.582C483.277 453.909 457.608 443.207 443.688 460.243C417.202 492.661 436.107 544.683 400.228 565.68C370.262 583.217 364.869 533.749 349.213 515.532C339.675 504.434 336.398 488.542 325.488 478.717C316.837 470.926 305.644 465.332 292.221 464.206C259.701 461.476 212.177 485.925 190.853 467.416C175.629 454.202 198.229 418.637 211.604 394.232C224.339 370.995 247.309 352.27 265.55 331.115C281.519 312.597 292.791 289.258 313.356 276.228Z" stroke="url(#paint16_linear_755_397)" stroke-opacity="0.8" stroke-width="0.762275"/>
<path opacity="0.529412" fill-rule="evenodd" clip-rule="evenodd" d="M305.071 277.934C326.115 264.599 349.056 273.91 370.329 261.181C394.595 246.662 411.917 195.789 432.206 201.864C459.7 210.098 438.382 259.818 449.144 284.782C453.033 293.803 462.5 300.657 474.325 299.568C506.62 296.592 548.155 263.166 573.941 273.285C591.194 280.054 572.154 313.855 565.456 335.327C559.26 355.189 549.003 375.068 536.223 394.199C524.377 411.932 511.509 431.076 493.335 443.288C474.992 455.615 449.322 444.913 435.403 461.949C408.916 494.367 427.822 546.389 391.942 567.386C361.976 584.923 356.584 535.455 340.927 517.238C331.39 506.14 328.113 490.248 317.202 480.423C308.552 472.632 297.359 467.038 283.935 465.912C251.415 463.182 203.892 487.632 182.567 469.122C167.343 455.908 189.944 420.343 203.319 395.938C216.053 372.701 239.024 353.976 257.265 332.821C273.233 314.303 284.506 290.964 305.071 277.934Z" stroke="url(#paint17_linear_755_397)" stroke-opacity="0.8" stroke-width="0.762275"/>
<path opacity="0.558824" fill-rule="evenodd" clip-rule="evenodd" d="M296.785 279.64C317.83 266.305 340.77 275.616 362.043 262.887C386.309 248.368 403.631 197.495 423.92 203.57C451.415 211.804 430.097 261.524 440.859 286.488C444.747 295.509 454.214 302.363 466.04 301.274C498.335 298.298 539.87 264.872 565.655 274.991C582.908 281.76 563.868 315.561 557.17 337.033C550.975 356.895 540.717 376.774 527.937 395.905C516.091 413.638 503.223 432.782 485.049 444.994C466.706 457.321 441.036 446.619 427.117 463.655C400.631 496.073 419.536 548.095 383.656 569.092C353.691 586.629 348.298 537.161 332.642 518.944C323.104 507.846 319.827 491.954 308.917 482.129C300.266 474.338 289.073 468.744 275.649 467.618C243.129 464.888 195.606 489.338 174.282 470.828C159.057 457.614 181.658 422.049 195.033 397.644C207.767 374.407 230.738 355.682 248.979 334.527C264.947 316.009 276.22 292.67 296.785 279.64Z" stroke="url(#paint18_linear_755_397)" stroke-opacity="0.8" stroke-width="0.762275"/>
<path opacity="0.588235" fill-rule="evenodd" clip-rule="evenodd" d="M288.499 281.346C309.544 268.011 332.484 277.322 353.757 264.593C378.023 250.074 395.345 199.201 415.635 205.276C443.129 213.51 421.811 263.23 432.573 288.194C436.461 297.215 445.928 304.069 457.754 302.98C490.049 300.004 531.584 266.578 557.37 276.696C574.622 283.466 555.583 317.267 548.885 338.739C542.689 358.601 532.432 378.48 519.651 397.611C507.805 415.344 494.937 434.488 476.764 446.7C458.42 459.027 432.751 448.325 418.831 465.361C392.345 497.779 411.25 549.801 375.37 570.798C345.405 588.335 340.012 538.867 324.356 520.65C314.818 509.552 311.541 493.66 300.631 483.835C291.98 476.044 280.787 470.45 267.364 469.324C234.843 466.594 187.32 491.044 165.996 472.534C150.771 459.32 173.372 423.755 186.747 399.35C199.482 376.113 222.452 357.388 240.693 336.233C256.662 317.715 267.934 294.376 288.499 281.346Z" stroke="url(#paint19_linear_755_397)" stroke-opacity="0.8" stroke-width="0.762275"/>
<path opacity="0.617647" fill-rule="evenodd" clip-rule="evenodd" d="M280.213 283.052C301.258 269.717 324.198 279.028 345.472 266.299C369.738 251.78 387.06 200.907 407.349 206.982C434.843 215.215 413.525 264.936 424.287 289.9C428.175 298.921 437.642 305.775 449.468 304.686C481.763 301.71 523.298 268.284 549.084 278.402C566.337 285.172 547.297 318.973 540.599 340.445C534.403 360.307 524.146 380.185 511.365 399.317C499.519 417.05 486.652 436.194 468.478 448.406C450.134 460.733 424.465 450.031 410.545 467.067C384.059 499.485 402.964 551.507 367.085 572.504C337.119 590.041 331.727 540.573 316.07 522.356C306.532 511.258 303.255 495.366 292.345 485.541C283.695 477.75 272.501 472.156 259.078 471.03C226.558 468.3 179.034 492.749 157.71 474.24C142.486 461.026 165.087 425.461 178.461 401.056C191.196 377.819 214.166 359.094 232.408 337.939C248.376 319.421 259.648 296.082 280.213 283.052Z" stroke="url(#paint20_linear_755_397)" stroke-opacity="0.8" stroke-width="0.762275"/>
<path opacity="0.647059" fill-rule="evenodd" clip-rule="evenodd" d="M271.928 284.758C292.973 271.423 315.913 280.734 337.186 268.005C361.452 253.486 378.774 202.613 399.063 208.688C426.558 216.921 405.239 266.642 416.001 291.606C419.89 300.627 429.357 307.481 441.183 306.392C473.477 303.416 515.012 269.99 540.798 280.108C558.051 286.878 539.011 320.679 532.313 342.151C526.117 362.013 515.86 381.892 503.08 401.023C491.234 418.756 478.366 437.9 460.192 450.112C441.849 462.439 416.179 451.737 402.26 468.773C375.773 501.191 394.679 553.213 358.799 574.21C328.833 591.747 323.441 542.279 307.784 524.062C298.247 512.964 294.97 497.072 284.059 487.247C275.409 479.456 264.216 473.862 250.792 472.736C218.272 470.006 170.749 494.455 149.424 475.946C134.2 462.732 156.801 427.167 170.176 402.762C182.91 379.525 205.881 360.8 224.122 339.645C240.09 321.127 251.363 297.788 271.928 284.758Z" stroke="url(#paint21_linear_755_397)" stroke-opacity="0.8" stroke-width="0.762275"/>
<path opacity="0.676471" fill-rule="evenodd" clip-rule="evenodd" d="M263.642 286.464C284.687 273.129 307.627 282.44 328.9 269.711C353.166 255.192 370.488 204.319 390.777 210.394C418.272 218.627 396.953 268.348 407.715 293.312C411.604 302.333 421.071 309.187 432.897 308.098C465.191 305.122 506.726 271.696 532.512 281.814C549.765 288.584 530.725 322.385 524.027 343.857C517.831 363.719 507.574 383.598 494.794 402.729C482.948 420.462 470.08 439.606 451.906 451.818C433.563 464.145 407.893 453.443 393.974 470.479C367.487 502.897 386.393 554.919 350.513 575.916C320.547 593.453 315.155 543.985 299.498 525.768C289.961 514.67 286.684 498.778 275.773 488.953C267.123 481.162 255.93 475.568 242.506 474.442C209.986 471.712 162.463 496.161 141.138 477.652C125.914 464.438 148.515 428.873 161.89 404.468C174.624 381.231 197.595 362.506 215.836 341.351C231.804 322.833 243.077 299.494 263.642 286.464Z" stroke="url(#paint22_linear_755_397)" stroke-opacity="0.8" stroke-width="0.762275"/>
<path opacity="0.705882" fill-rule="evenodd" clip-rule="evenodd" d="M255.356 288.17C276.401 274.835 299.341 284.146 320.615 271.417C344.881 256.898 362.202 206.025 382.492 212.1C409.986 220.333 388.668 270.054 399.43 295.018C403.318 304.039 412.785 310.893 424.611 309.804C456.906 306.828 498.441 273.402 524.227 283.52C541.479 290.29 522.44 324.091 515.742 345.563C509.546 365.425 499.289 385.303 486.508 404.435C474.662 422.168 461.795 441.312 443.621 453.524C425.277 465.851 399.608 455.149 385.688 472.185C359.202 504.603 378.107 556.625 342.228 577.622C312.262 595.159 306.869 545.691 291.213 527.474C281.675 516.376 278.398 500.484 267.488 490.659C258.837 482.868 247.644 477.274 234.221 476.148C201.701 473.418 154.177 497.867 132.853 479.358C117.629 466.144 140.229 430.579 153.604 406.174C166.339 382.937 189.309 364.212 207.55 343.057C223.519 324.539 234.791 301.2 255.356 288.17Z" stroke="url(#paint23_linear_755_397)" stroke-opacity="0.8" stroke-width="0.762275"/>
<path opacity="0.735294" fill-rule="evenodd" clip-rule="evenodd" d="M247.07 289.876C268.115 276.541 291.055 285.852 312.329 273.123C336.595 258.604 353.917 207.731 374.206 213.806C401.7 222.039 380.382 271.76 391.144 296.724C395.033 305.744 404.499 312.599 416.325 311.51C448.62 308.534 490.155 275.108 515.941 285.226C533.194 291.996 514.154 325.797 507.456 347.269C501.26 367.131 491.003 387.009 478.223 406.141C466.377 423.874 453.509 443.018 435.335 455.23C416.991 467.557 391.322 456.855 377.402 473.891C350.916 506.309 369.822 558.331 333.942 579.328C303.976 596.865 298.584 547.397 282.927 529.18C273.389 518.082 270.112 502.19 259.202 492.365C250.552 484.574 239.358 478.98 225.935 477.853C193.415 475.124 145.891 499.573 124.567 481.064C109.343 467.85 131.944 432.285 145.318 407.88C158.053 384.643 181.024 365.918 199.265 344.763C215.233 326.245 226.505 302.906 247.07 289.876Z" stroke="url(#paint24_linear_755_397)" stroke-opacity="0.8" stroke-width="0.762275"/>
<path opacity="0.764706" fill-rule="evenodd" clip-rule="evenodd" d="M238.785 291.582C259.83 278.247 282.77 287.558 304.043 274.829C328.309 260.31 345.631 209.437 365.92 215.512C393.415 223.745 372.097 273.466 382.858 298.43C386.747 307.45 396.214 314.305 408.04 313.216C440.335 310.24 481.87 276.814 507.655 286.932C524.908 293.702 505.868 327.503 499.17 348.975C492.975 368.837 482.717 388.715 469.937 407.847C458.091 425.58 445.223 444.724 427.049 456.936C408.706 469.263 383.036 458.561 369.117 475.597C342.631 508.015 361.536 560.037 325.656 581.034C295.691 598.571 290.298 549.103 274.642 530.886C265.104 519.788 261.827 503.896 250.917 494.071C242.266 486.28 231.073 480.686 217.649 479.559C185.129 476.83 137.606 501.279 116.282 482.77C101.057 469.556 123.658 433.991 137.033 409.586C149.767 386.349 172.738 367.624 190.979 346.469C206.947 327.951 218.22 304.612 238.785 291.582Z" stroke="url(#paint25_linear_755_397)" stroke-opacity="0.8" stroke-width="0.762275"/>
<path opacity="0.794118" fill-rule="evenodd" clip-rule="evenodd" d="M230.499 293.288C251.544 279.953 274.484 289.264 295.757 276.535C320.023 262.016 337.345 211.143 357.634 217.218C385.129 225.451 363.811 275.172 374.573 300.136C378.461 309.156 387.928 316.011 399.754 314.922C432.049 311.946 473.584 278.52 499.369 288.638C516.622 295.408 497.582 329.209 490.884 350.681C484.689 370.543 474.431 390.421 461.651 409.553C449.805 427.286 436.937 446.43 418.763 458.642C400.42 470.969 374.75 460.267 360.831 477.303C334.345 509.721 353.25 561.743 317.37 582.74C287.405 600.277 282.012 550.809 266.356 532.592C256.818 521.494 253.541 505.602 242.631 495.777C233.98 487.986 222.787 482.392 209.363 481.265C176.843 478.536 129.32 502.985 107.996 484.476C92.7713 471.262 115.372 435.697 128.747 411.292C141.481 388.055 164.452 369.33 182.693 348.175C198.661 329.657 209.934 306.318 230.499 293.288Z" stroke="url(#paint26_linear_755_397)" stroke-opacity="0.8" stroke-width="0.762275"/>
<path opacity="0.823529" fill-rule="evenodd" clip-rule="evenodd" d="M222.213 294.994C243.258 281.659 266.198 290.97 287.472 278.241C311.738 263.722 329.06 212.848 349.349 218.924C376.843 227.157 355.525 276.878 366.287 301.842C370.175 310.862 379.642 317.717 391.468 316.628C423.763 313.652 465.298 280.226 491.084 290.344C508.337 297.114 489.297 330.915 482.599 352.387C476.403 372.249 466.146 392.127 453.365 411.259C441.519 428.992 428.652 448.136 410.478 460.348C392.134 472.675 366.465 461.973 352.545 479.009C326.059 511.427 344.964 563.449 309.085 584.446C279.119 601.983 273.726 552.515 258.07 534.298C248.532 523.2 245.255 507.308 234.345 497.483C225.695 489.692 214.501 484.098 201.078 482.971C168.558 480.242 121.034 504.691 99.7099 486.182C84.4857 472.968 107.086 437.403 120.461 412.998C133.196 389.761 156.166 371.036 174.408 349.881C190.376 331.363 201.648 308.024 222.213 294.994Z" stroke="url(#paint27_linear_755_397)" stroke-opacity="0.8" stroke-width="0.762275"/>
<path opacity="0.852941" fill-rule="evenodd" clip-rule="evenodd" d="M213.928 296.7C234.973 283.365 257.913 292.676 279.186 279.947C303.452 265.428 320.774 214.554 341.063 220.63C368.558 228.863 347.239 278.584 358.001 303.548C361.89 312.568 371.357 319.423 383.183 318.334C415.477 315.358 457.012 281.932 482.798 292.05C500.051 298.82 481.011 332.621 474.313 354.093C468.117 373.955 457.86 393.833 445.08 412.965C433.234 430.698 420.366 449.842 402.192 462.054C383.849 474.381 358.179 463.679 344.26 480.715C317.773 513.133 336.679 565.155 300.799 586.152C270.833 603.689 265.441 554.221 249.784 536.004C240.247 524.906 236.97 509.014 226.059 499.189C217.409 491.398 206.216 485.804 192.792 484.677C160.272 481.948 112.749 506.397 91.4242 487.888C76.2 474.674 98.8008 439.109 112.176 414.704C124.91 391.467 147.881 372.742 166.122 351.587C182.09 333.069 193.363 309.73 213.928 296.7Z" stroke="url(#paint28_linear_755_397)" stroke-opacity="0.8" stroke-width="0.762275"/>
<path opacity="0.882353" fill-rule="evenodd" clip-rule="evenodd" d="M205.642 298.406C226.687 285.071 249.627 294.382 270.9 281.653C295.166 267.134 312.488 216.26 332.777 222.336C360.272 230.569 338.953 280.29 349.715 305.254C353.604 314.274 363.071 321.129 374.897 320.04C407.191 317.064 448.726 283.638 474.512 293.756C491.765 300.526 472.725 334.327 466.027 355.799C459.831 375.661 449.574 395.539 436.794 414.671C424.948 432.404 412.08 451.548 393.906 463.76C375.563 476.087 349.893 465.385 335.974 482.421C309.487 514.839 328.393 566.861 292.513 587.858C262.547 605.395 257.155 555.927 241.498 537.71C231.961 526.612 228.684 510.72 217.773 500.895C209.123 493.104 197.93 487.51 184.506 486.383C151.986 483.654 104.463 508.103 83.1383 489.594C67.914 476.38 90.5148 440.815 103.89 416.41C116.624 393.173 139.595 374.448 157.836 353.293C173.804 334.775 185.077 311.436 205.642 298.406Z" stroke="url(#paint29_linear_755_397)" stroke-opacity="0.8" stroke-width="0.762275"/>
<path opacity="0.911765" fill-rule="evenodd" clip-rule="evenodd" d="M197.356 300.112C218.401 286.777 241.341 296.088 262.614 283.359C286.88 268.84 304.202 217.967 324.492 224.042C351.986 232.275 330.668 281.996 341.43 306.96C345.318 315.98 354.785 322.835 366.611 321.746C398.906 318.77 440.441 285.344 466.227 295.462C483.479 302.232 464.44 336.033 457.742 357.505C451.546 377.367 441.288 397.245 428.508 416.377C416.662 434.11 403.794 453.254 385.62 465.466C367.277 477.793 341.608 467.091 327.688 484.127C301.202 516.545 320.107 568.567 284.227 589.564C254.262 607.101 248.869 557.633 233.213 539.416C223.675 528.318 220.398 512.426 209.488 502.601C200.837 494.81 189.644 489.216 176.221 488.089C143.7 485.36 96.1769 509.809 74.8526 491.3C59.6284 478.086 82.2292 442.521 95.6041 418.116C108.338 394.879 131.309 376.154 149.55 354.999C165.518 336.481 176.791 313.142 197.356 300.112Z" stroke="url(#paint30_linear_755_397)" stroke-opacity="0.8" stroke-width="0.762275"/>
<path opacity="0.941176" fill-rule="evenodd" clip-rule="evenodd" d="M189.07 301.818C210.115 288.483 233.055 297.794 254.329 285.065C278.595 270.546 295.917 219.673 316.206 225.748C343.7 233.981 322.382 283.702 333.144 308.666C337.033 317.686 346.499 324.541 358.325 323.452C390.62 320.476 432.155 287.05 457.941 297.168C475.194 303.938 456.154 337.739 449.456 359.211C443.26 379.073 433.003 398.951 420.223 418.083C408.377 435.816 395.509 454.96 377.335 467.172C358.991 479.499 333.322 468.797 319.402 485.833C292.916 518.251 311.822 570.273 275.942 591.27C245.976 608.807 240.584 559.339 224.927 541.122C215.39 530.024 212.112 514.132 201.202 504.307C192.552 496.516 181.359 490.922 167.935 489.795C135.415 487.066 87.8914 511.515 66.567 493.006C51.3428 479.792 73.9436 444.227 87.3185 419.822C100.053 396.585 123.024 377.86 141.265 356.705C157.233 338.187 168.505 314.848 189.07 301.818Z" stroke="url(#paint31_linear_755_397)" stroke-opacity="0.8" stroke-width="0.762275"/>
<path opacity="0.970588" fill-rule="evenodd" clip-rule="evenodd" d="M180.785 303.524C201.83 290.189 224.77 299.5 246.043 286.771C270.309 272.252 287.631 221.379 307.92 227.454C335.415 235.687 314.096 285.408 324.858 310.372C328.747 319.392 338.214 326.247 350.04 325.158C382.334 322.182 423.869 288.756 449.655 298.874C466.908 305.644 447.868 339.445 441.17 360.917C434.975 380.779 424.717 400.657 411.937 419.789C400.091 437.522 387.223 456.666 369.049 468.878C350.706 481.205 325.036 470.503 311.117 487.539C284.63 519.957 303.536 571.979 267.656 592.976C237.69 610.513 232.298 561.045 216.641 542.828C207.104 531.73 203.827 515.838 192.917 506.013C184.266 498.222 173.073 492.628 159.649 491.501C127.129 488.772 79.6057 513.221 58.2813 494.712C43.0571 481.498 65.6579 445.933 79.0328 421.528C91.7671 398.291 114.738 379.566 132.979 358.411C148.947 339.893 160.22 316.554 180.785 303.524Z" stroke="url(#paint32_linear_755_397)" stroke-opacity="0.8" stroke-width="0.762275"/>
<path fill-rule="evenodd" clip-rule="evenodd" d="M172.51 304.836C193.555 291.501 216.495 300.812 237.768 288.083C262.034 273.564 279.356 222.691 299.646 228.766C327.14 236.999 305.822 286.72 316.584 311.684C320.472 320.705 329.939 327.559 341.765 326.47C374.06 323.494 415.595 290.068 441.38 300.186C458.633 306.956 439.594 340.757 432.895 362.229C426.7 382.091 416.442 401.969 403.662 421.101C391.816 438.834 378.948 457.978 360.774 470.19C342.431 482.517 316.762 471.815 302.842 488.851C276.356 521.269 295.261 573.291 259.381 594.288C229.416 611.825 224.023 562.357 208.367 544.14C198.829 533.042 195.552 517.15 184.642 507.325C175.991 499.534 164.798 493.94 151.374 492.814C118.854 490.084 71.3309 514.533 50.0066 496.024C34.7823 482.81 57.3832 447.245 70.758 422.84C83.4924 399.603 106.463 380.878 124.704 359.723C140.672 341.205 151.945 317.866 172.51 304.836Z" stroke="url(#paint33_linear_755_397)" stroke-opacity="0.8" stroke-width="0.762275"/>
<path fill-rule="evenodd" clip-rule="evenodd" d="M164.2 307.406C185.245 294.072 208.185 303.382 229.459 290.653C253.725 276.134 271.046 225.261 291.336 231.337C318.83 239.57 297.512 289.29 308.274 314.255C312.162 323.275 321.629 330.13 333.455 329.04C365.75 326.065 407.285 292.638 433.071 302.757C450.323 309.527 431.284 343.328 424.586 364.8C418.39 384.661 408.133 404.54 395.352 423.671C383.506 441.404 370.639 460.548 352.465 472.761C334.121 485.087 308.452 474.385 294.532 491.422C268.046 523.839 286.951 575.861 251.072 596.859C221.106 614.395 215.713 564.927 200.057 546.71C190.519 535.613 187.242 519.721 176.332 509.895C167.681 502.104 156.488 496.511 143.065 495.384C110.545 492.654 63.0212 517.104 41.6969 498.595C26.4726 485.38 49.0734 449.815 62.4483 425.41C75.1827 402.174 98.1534 383.448 116.394 362.294C132.363 343.775 143.635 320.437 164.2 307.406Z" stroke="url(#paint34_linear_755_397)" stroke-opacity="0.8" stroke-width="0.762275"/>
</g>
</svg>
