<svg width="14" height="14" viewBox="0 0 14 14" fill="none" xmlns="http://www.w3.org/2000/svg">
<path d="M7 10.4816C7.17193 10.4816 7.31316 10.4263 7.42368 10.3158C7.53421 10.2053 7.58947 10.064 7.58947 9.89211C7.58947 9.72018 7.53421 9.57895 7.42368 9.46842C7.31316 9.35789 7.17193 9.30263 7 9.30263C6.82807 9.30263 6.68684 9.35789 6.57632 9.46842C6.46579 9.57895 6.41053 9.72018 6.41053 9.89211C6.41053 10.064 6.46579 10.2053 6.57632 10.3158C6.68684 10.4263 6.82807 10.4816 7 10.4816ZM7 7.79211C7.15965 7.79211 7.29179 7.73979 7.39642 7.63516C7.50056 7.53102 7.55263 7.39912 7.55263 7.23947V3.92368C7.55263 3.76403 7.50056 3.63189 7.39642 3.52726C7.29179 3.42312 7.15965 3.37105 7 3.37105C6.84035 3.37105 6.70846 3.42312 6.60432 3.52726C6.49968 3.63189 6.44737 3.76403 6.44737 3.92368V7.23947C6.44737 7.39912 6.49968 7.53102 6.60432 7.63516C6.70846 7.73979 6.84035 7.79211 7 7.79211ZM7 14C6.02982 14 5.11811 13.8158 4.26484 13.4474C3.41109 13.0789 2.67105 12.5816 2.04474 11.9553C1.41842 11.3289 0.921053 10.5889 0.552632 9.73516C0.184211 8.88189 0 7.97018 0 7C0 6.02982 0.184211 5.11786 0.552632 4.2641C0.921053 3.41084 1.41842 2.67105 2.04474 2.04474C2.67105 1.41842 3.41109 0.921053 4.26484 0.552632C5.11811 0.184211 6.02982 0 7 0C7.97018 0 8.88214 0.184211 9.7359 0.552632C10.5892 0.921053 11.3289 1.41842 11.9553 2.04474C12.5816 2.67105 13.0789 3.41084 13.4474 4.2641C13.8158 5.11786 14 6.02982 14 7C14 7.97018 13.8158 8.88189 13.4474 9.73516C13.0789 10.5889 12.5816 11.3289 11.9553 11.9553C11.3289 12.5816 10.5892 13.0789 9.7359 13.4474C8.88214 13.8158 7.97018 14 7 14ZM7 12.8947C8.64561 12.8947 10.0395 12.3237 11.1816 11.1816C12.3237 10.0395 12.8947 8.64561 12.8947 7C12.8947 5.35439 12.3237 3.96053 11.1816 2.81842C10.0395 1.67632 8.64561 1.10526 7 1.10526C5.35439 1.10526 3.96053 1.67632 2.81842 2.81842C1.67632 3.96053 1.10526 5.35439 1.10526 7C1.10526 8.64561 1.67632 10.0395 2.81842 11.1816C3.96053 12.3237 5.35439 12.8947 7 12.8947Z" fill="#E80000" fill-opacity="0.7"/>
</svg>
