<svg width="45" height="27" viewBox="0 0 45 27" fill="none" xmlns="http://www.w3.org/2000/svg">
    <path fill-rule="evenodd" clip-rule="evenodd" d="M21.8714 1.53249L18.5537 4.84375L22.5 8.78236L25.8178 5.4711L21.8714 1.53249ZM26.9036 4.38747L22.9572 0.448857C22.3576 -0.149618 21.3853 -0.14962 20.7857 0.448855L17.4679 3.76012L14.2892 0.587613C13.6895 -0.0108621 12.7173 -0.0108638 12.1176 0.587611L0.44977 12.2326C-0.149882 12.831 -0.149883 13.8014 0.449769 14.3998L12.1176 26.0448C12.7173 26.6433 13.6895 26.6433 14.2892 26.0448L17.6069 22.7335L20.7857 25.906C21.3853 26.5045 22.3576 26.5045 22.9572 25.906L26.7645 22.1062L30.7109 26.0448C31.3106 26.6433 32.2828 26.6433 32.8824 26.0448L44.5503 14.3998C45.1499 13.8014 45.1499 12.831 44.5503 12.2326L32.8824 0.587613C32.2828 -0.0108621 31.3106 -0.0108638 30.7109 0.587611L26.9036 4.38747ZM26.9036 6.55474L23.5858 9.866L25.957 12.2326C26.5567 12.831 26.5567 13.8014 25.957 14.3998L23.5858 16.7664L26.7645 19.9389L33.5393 13.1775L26.9036 6.55474ZM27.8503 21.0226L34.6251 14.2611C35.2247 13.6626 35.2247 12.6923 34.6251 12.0938L27.9893 5.47111L31.7967 1.67125L43.4645 13.3162L31.7967 24.9612L27.8503 21.0226ZM25.6788 21.0226L22.5 17.85L18.6927 21.6499L21.8714 24.8224L25.6788 21.0226ZM22.5 15.6828L24.8713 13.3162L22.5 10.9496L20.1288 13.3162L22.5 15.6828ZM21.4143 9.866L19.043 12.2326C18.4434 12.831 18.4434 13.8014 19.043 14.3998L21.4143 16.7664L17.6069 20.5663L10.2036 13.1774L17.4679 5.92739L21.4143 9.866ZM13.2034 24.9612L16.5212 21.6499L9.11782 14.2611C8.51816 13.6626 8.51816 12.6923 9.11782 12.0938L16.3821 4.84375L13.2034 1.67125L1.53554 13.3162L13.2034 24.9612Z" fill="#4211AB"/>
</svg>
